<svg xmlns="http://www.w3.org/2000/svg" viewBox="0 0 129.451 132.543"><path d="M77.132 93.583c0-1.136-.459-1.987-1.373-2.559-.914-.567-2.201-.852-3.857-.852h-4.967v12.378h5.767c1.534 0 2.731-.297 3.587-.893.856-.595 1.285-1.472 1.285-2.629 0-.673-.219-1.27-.657-1.792-.438-.521-1.049-.879-1.83-1.07.65-.235 1.154-.581 1.511-1.034.355-.454.534-.97.534-1.549zm-7.906-1.638h2.676c.967 0 1.699.149 2.195.445.496.294.745.734.745 1.318 0 .568-.248.993-.739 1.271-.491.282-1.222.421-2.192.421h-2.685zm6.045 7.025c0 .597-.217 1.051-.65 1.369-.434.317-1.073.475-1.919.475h-3.476v-3.686h3.476c.846 0 1.485.163 1.919.482.433.321.65.775.65 1.36zm7.726-5.978c.517-.85 1.375-1.274 2.575-1.274.829 0 1.516.264 2.057.795.545.53.814 1.173.814 1.927h2.07l.022-.067c.032-1.243-.419-2.292-1.354-3.146-.933-.854-2.136-1.282-3.609-1.282-1.822 0-3.22.59-4.191 1.768-.973 1.18-1.459 2.65-1.459 4.41v.482c0 1.775.485 3.252 1.452 4.427.97 1.174 2.37 1.762 4.198 1.762 1.333 0 2.501-.415 3.507-1.246 1.002-.832 1.484-1.781 1.446-2.85l-.022-.068h-2.06c0 .67-.287 1.237-.864 1.698a3.113 3.113 0 01-2.007.691c-1.209 0-2.07-.42-2.581-1.261-.511-.842-.766-1.896-.766-3.16v-.479c.001-1.237.256-2.278.772-3.127zM32.176 75.694h64.88a5.406 5.406 0 005.407-5.406V18.023a5.406 5.406 0 00-5.407-5.407L65.065 0l-32.89 12.616a5.405 5.405 0 00-5.407 5.407v52.265a5.407 5.407 0 005.408 5.406zm32.44-64.881l29.458 21.611H35.155zM39.868 38.035l-1.178-2.054h14.14l-1.178 2.054h-2.356v23.288h-7.07V38.035zm51.724 24.889v1.904H37.64v-1.904zM58.723 38.035l-1.177-2.054h14.14l-1.178 2.054H68.15v23.288h-7.07V38.035zm18.855 0l-1.18-2.054h14.143l-1.18 2.054h-2.357v23.288h-7.069V38.035zM33.977 66.581h61.277v1.905H33.977zm90.382 21.567c1.061 0 1.906-.277 2.534-.834.629-.558.926-1.277.895-2.164l-.023-.068h-1.755c0 .497-.136.901-.406 1.218-.273.316-.687.476-1.244.476-.573 0-.992-.156-1.257-.468-.265-.313-.395-.721-.395-1.226h-1.757l-.022.068c-.039.887.255 1.606.884 2.164.627.557 1.476.834 2.546.834zM64.616 19.053a4.71 4.71 0 00-4.714 4.707 4.711 4.711 0 004.714 4.709 4.71 4.71 0 100-9.416zM6.465 92.485H2.291v-4.818h8.091v-1.771H0v16.655h6.465c1.798 0 3.202-.468 4.209-1.406 1.007-.938 1.51-2.161 1.51-3.672 0-1.503-.502-2.71-1.505-3.621-1.002-.913-2.408-1.367-4.214-1.367zm2.57 7.329c-.574.643-1.43.964-2.57.964H2.291v-6.521h4.174c1.147 0 2.006.304 2.576.913.569.609.854 1.366.854 2.272.001.94-.287 1.728-.86 2.372zm81.199 15.362c-1.728 0-3.096.593-4.105 1.778-1.005 1.187-1.508 2.695-1.508 4.526v.25c0 1.839.504 3.347 1.516 4.526 1.011 1.177 2.386 1.768 4.121 1.768 1.736 0 3.107-.589 4.116-1.764 1.006-1.173 1.512-2.684 1.512-4.53v-.25c0-1.839-.507-3.348-1.518-4.53-1.011-1.183-2.389-1.774-4.134-1.774zm3.361 6.551c0 1.31-.283 2.389-.849 3.245-.565.853-1.395 1.278-2.488 1.278-1.106 0-1.944-.426-2.505-1.278-.563-.856-.844-1.936-.844-3.245v-.252c0-1.296.28-2.374.844-3.233.561-.862 1.388-1.291 2.481-1.291 1.103 0 1.937.429 2.507 1.291.57.859.854 1.938.854 3.233zm-13.813-.329c.65-.235 1.156-.581 1.512-1.035.357-.453.535-.97.535-1.548 0-1.138-.458-1.989-1.372-2.56-.915-.566-2.201-.852-3.86-.852h-4.965v12.378h5.767c1.535 0 2.73-.298 3.587-.893.857-.595 1.285-1.471 1.285-2.63a2.71 2.71 0 00-.657-1.791c-.438-.519-1.049-.876-1.832-1.069zm-5.859-4.22h2.674c.97 0 1.701.148 2.196.444.497.295.746.735.746 1.317 0 .568-.247.993-.739 1.272-.491.281-1.223.422-2.192.422h-2.685zm5.394 8.391c-.435.317-1.073.476-1.919.476h-3.476v-3.686h3.476c.846 0 1.484.162 1.919.482.435.32.651.774.651 1.36.001.596-.216 1.052-.651 1.368zM63.9 115.176c-1.456 0-2.719.585-3.785 1.756-1.064 1.172-1.598 2.637-1.598 4.4v.503c0 1.83.518 3.319 1.552 4.468 1.035 1.147 2.429 1.722 4.181 1.722 1.045 0 1.938-.147 2.673-.438.737-.292 1.328-.658 1.78-1.093l-.897-1.468c-.426.383-.93.681-1.517.897-.584.218-1.266.327-2.039.327-1.063 0-1.889-.381-2.478-1.146-.589-.765-.896-1.74-.918-2.928l.034-.056h8.162v-1.408c0-1.676-.435-3.02-1.303-4.026-.866-1.007-2.149-1.51-3.847-1.51zm2.862 5.17h-5.804l-.022-.057c.124-.956.458-1.752 1-2.388.544-.635 1.199-.951 1.965-.951.946 0 1.659.296 2.14.888.479.594.722 1.331.722 2.212v.296zm37.298-17.795l.034-.057-5.325-6.395 4.93-5.868-.035-.059h-2.687l-4.149 5.229h-1.325v-5.229h-2.292v12.378h2.292V97.3h1.499l4.245 5.25h2.813zm4.011-3.568l-.071-.024v-8.786h-2.279v12.378H108l5.559-8.809.067.024v8.784h2.292V90.172h-2.292zm19.089-8.81l-5.558 8.811-.069-.024v-8.786h-2.277v12.378h2.277l5.558-8.809.069.024v8.784h2.291V90.173zm-91.384 12.378h2.29V90.173h-2.29v5.354h-5.604v-5.354H27.88v12.378h2.292v-5.25h5.604zM64.121 96.5v-.252c0-1.837-.504-3.348-1.517-4.53-1.013-1.182-2.389-1.774-4.134-1.774-1.728 0-3.097.593-4.104 1.781-1.008 1.185-1.511 2.692-1.511 4.523v.252c0 1.837.505 3.346 1.518 4.524 1.011 1.178 2.385 1.768 4.121 1.768 1.735 0 3.109-.588 4.115-1.762 1.009-1.175 1.512-2.684 1.512-4.53zm-2.289-.006c0 1.31-.284 2.391-.849 3.245-.566.853-1.396 1.278-2.489 1.278-1.108 0-1.942-.426-2.506-1.278-.562-.854-.841-1.936-.841-3.245v-.251c0-1.295.279-2.375.841-3.233.563-.863 1.39-1.292 2.482-1.292 1.101 0 1.938.429 2.506 1.292.57.858.855 1.938.855 3.233v.251zm-24.057 18.682c-1.457 0-2.719.585-3.784 1.756-1.067 1.172-1.599 2.637-1.599 4.4v.503c0 1.83.518 3.319 1.551 4.468 1.034 1.147 2.429 1.722 4.18 1.722 1.047 0 1.938-.147 2.675-.438.736-.292 1.329-.658 1.778-1.093l-.895-1.468a4.648 4.648 0 01-1.517.897c-.586.218-1.265.327-2.042.327-1.062 0-1.886-.381-2.476-1.146-.59-.765-.895-1.74-.919-2.928l.036-.056h8.162v-1.408c0-1.676-.435-3.02-1.302-4.026-.868-1.007-2.149-1.51-3.848-1.51zm2.861 5.17h-5.801l-.022-.057c.123-.956.457-1.752 1-2.388.542-.635 1.197-.951 1.964-.951.945 0 1.66.296 2.141.888.48.594.72 1.331.72 2.212v.296zm-18.369-19.649c.007.29.032.579.076.865.042.285.102.615.179.988h2.36a6.447 6.447 0 01-.255-1.213 11.29 11.29 0 01-.07-1.281v-5.959c0-1.343-.434-2.369-1.303-3.084-.868-.712-2.015-1.07-3.441-1.07-1.44 0-2.619.376-3.528 1.123-.91.746-1.342 1.571-1.297 2.472l.025.066h2.186c0-.518.23-.962.691-1.332.462-.37 1.06-.555 1.796-.555.821 0 1.457.212 1.907.634.449.424.674.998.674 1.723v1.225h-2.489c-1.667 0-2.987.333-3.958 1.001-.974.667-1.459 1.592-1.459 2.775 0 1.158.343 2.067 1.028 2.728.687.658 1.684.989 2.994.989.792 0 1.53-.201 2.216-.601a5.325 5.325 0 001.668-1.494zm-5.094-.283c-.349-.318-.523-.753-.523-1.301 0-.616.278-1.152.833-1.609.553-.457 1.292-.685 2.214-.685h2.57v2.01c-.202.537-.636 1.019-1.302 1.435a4.134 4.134 0 01-2.244.629c-.684 0-1.198-.161-1.548-.479zm34.112 14.762c-.812 0-1.526.156-2.138.469a4.13 4.13 0 00-1.535 1.361l-.36-1.602h-1.757v17.139h2.292v-6.053c.41.51.908.895 1.494 1.149.584.256 1.266.385 2.04.385 1.527 0 2.724-.549 3.592-1.644.869-1.093 1.302-2.533 1.302-4.317v-.241c0-1.998-.432-3.605-1.296-4.822-.863-1.216-2.076-1.824-3.634-1.824zm2.641 6.882c0 1.233-.28 2.239-.838 3.021-.559.779-1.38 1.172-2.465 1.172-.673 0-1.244-.142-1.708-.43a3.224 3.224 0 01-1.128-1.193v-5.976a3.302 3.302 0 011.128-1.206c.464-.291 1.025-.439 1.685-.439 1.094 0 1.921.452 2.482 1.355.562.9.844 2.053.844 3.457zm-1.548-19.507l.036-.057-5.324-6.395 4.928-5.868-.034-.059h-2.686l-4.152 5.229h-1.325v-5.229h-2.29v12.378h2.29V97.3h1.5l4.246 5.25h2.811zm-33.006 25.231h2.289v-10.604h5.616v10.604h2.29v-12.378H19.372zm89.743-12.378h-8.219l-.187 4.651c-.116 1.646-.345 2.867-.686 3.663a8.606 8.606 0 01-1.478 2.292h-.987l.219 5.409h2.07v-3.638h8.65v3.638h2.07l.222-5.409h-1.676v-10.606zm-2.289 10.607h-5.641c.497-.663.902-1.479 1.215-2.444.315-.97.515-2.138.602-3.509l.103-2.651h3.722v8.604z" fill="#737e8b"/></svg>