<svg xmlns="http://www.w3.org/2000/svg" viewBox="0 0 222.342 93.488"><path d="M111.062 70.321l-7.742 16.761c-15.772-.062-27.995-.152-30.882-.277-9.753-.431-5.514-8.166-5.514-8.166L123.317 0 88.55 70.321zm13.015 0h84.474l-10.178 16.905s-49.543.004-86.642-.114z" clip-rule="evenodd" fill="#039dff" fill-rule="evenodd"/><path d="M162.916 14.849l-60.632 78.639 39.006-69.875h-25.25l7.163-16.836c17.141.029 30.744.065 34.2.109 9.761.121 5.513 7.963 5.513 7.963zm-60.74 8.764H18.748L28.923 6.684s47.72.025 85.184.079z" clip-rule="evenodd" fill="#039dff" fill-rule="evenodd"/><path d="M11.722 55.856c-4.148 0-5.496-3.826-3.437-8.791 2.077-5.012 6.574-8.793 10.724-8.793 2.436 0 3.774 2.008 3.611 4.42l6.977-3.233c.003-3.963-1.589-8.108-7.718-8.108-7.804 0-16.367 6.333-20.256 15.715-3.869 9.339-.572 15.716 7.23 15.716 6.127 0 11.215-4.282 14.457-8.154l-4.313-3.187c-1.838 2.414-4.84 4.415-7.275 4.415zm36.344-24.505c-7.766 0-16.27 6.469-20.102 15.715-3.834 9.248-.689 15.716 7.076 15.716s16.232-6.468 20.064-15.716c3.834-9.247.728-15.715-7.038-15.715zm.38 15.714c-2.04 4.92-6.349 8.791-10.535 8.791-4.188 0-5.323-3.871-3.285-8.791 2.056-4.965 6.384-8.793 10.57-8.793 4.19 0 5.304 3.828 3.25 8.793zm26.362 1.504l-3.35-16.717H64.72L52.13 62.235h6.547l7.286-17.584 3.45 17.584h6.318l12.592-30.383h-6.585zm61.29 13.666h7.422l3.068-4.376H156.6l-.556 4.376h7.422l3.037-30.383h-8.262zm21.543-11.207h-6.432l7.974-11.434zm21.563 4.828c-4.149 0-5.495-3.826-3.437-8.791 2.074-5.012 6.572-8.793 10.722-8.793 2.436 0 3.776 2.008 3.613 4.42l6.975-3.233c.006-3.963-1.59-8.108-7.717-8.108-7.806 0-16.366 6.333-20.255 15.715-3.87 9.339-.575 15.716 7.228 15.716 6.13 0 11.216-4.282 14.457-8.154l-4.313-3.187c-1.838 2.414-4.837 4.415-7.273 4.415zm22.393-24.004l-2.832 6.833h7.12l-9.76 23.55h6.545l9.762-23.55h7.08l2.83-6.833zm-92.167 6.833h7.118l-9.759 23.55h6.546l9.76-23.55h7.081l2.832-6.833H112.26z"/></svg>