<svg xmlns="http://www.w3.org/2000/svg" viewBox="0 0 224.458 114.619"><path d="M9.757 0h204.944c5.369 0 9.757 4.387 9.757 9.757v95.104c0 5.37-4.388 9.758-9.757 9.758H9.757c-5.37 0-9.757-4.388-9.757-9.758V9.758C0 4.388 4.388 0 9.757 0z" fill="#e5335b"/><path d="M57.326 90.65H47.022l-9.657-14.837h-2.333V90.65h-9.657V53.966h9.657v14.938c1.351-.068 2.512-.392 3.17-.961.659-.569 1.898-1.831 2.813-3.785.268-.569.569-1.25.915-2.031.357-.793.659-1.485.927-2.065 1.004-2.21 2.221-3.785 3.672-4.723 1.44-.938 3.338-1.418 5.705-1.418.77 0 1.406.011 1.92.034.502.022.904.044 1.184.044v7.849h-1.999c-.982 0-1.842.323-2.579.971-.736.648-1.473 1.932-2.232 3.874-.603 1.541-1.172 2.702-1.697 3.495-.536.792-1.038 1.327-1.496 1.606l11.99 18.878v-.022zm26.112-46.609c.525.48.938 1.072 1.25 1.786.313.704.469 1.575.469 2.59 0 2.49-.893 4.432-2.679 5.828-1.786 1.396-4.354 2.099-7.691 2.099-1.519 0-2.97-.146-4.354-.436-1.384-.29-2.646-.681-3.795-1.184v-5.57h.524c.781.581 1.808 1.139 3.081 1.675 1.272.547 2.523.826 3.74.826 1.574 0 2.824-.301 3.751-.904.926-.603 1.384-1.519 1.384-2.769 0-1.083-.335-1.875-1.016-2.4-.681-.525-1.898-.782-3.65-.782h-3.338v-4.454h3.17c1.451 0 2.512-.234 3.193-.704.67-.468 1.005-1.172 1.005-2.121 0-.837-.369-1.44-1.105-1.82-.748-.38-1.73-.569-2.97-.569a8.89 8.89 0 00-1.987.223c-.625.156-1.239.346-1.841.581a12.41 12.41 0 00-1.552.726c-.48.268-.837.458-1.083.592h-.547v-5.181c.681-.301 1.786-.647 3.316-1.049a19.603 19.603 0 014.833-.591c2.992 0 5.236.536 6.732 1.596 1.485 1.061 2.232 2.546 2.232 4.443 0 1.418-.402 2.635-1.228 3.662-.815 1.028-1.864 1.708-3.148 2.055v.246c.48.089 1.038.278 1.674.558a5.739 5.739 0 011.619 1.039zm21.858 2.434c0 3.082-.792 5.516-2.367 7.291-1.585 1.774-3.818 2.667-6.709 2.667-2.869 0-5.102-.893-6.698-2.667-1.596-1.775-2.389-4.209-2.389-7.291 0-3.114.792-5.559 2.389-7.323 1.597-1.764 3.818-2.646 6.698-2.646 2.88 0 5.113.893 6.698 2.668 1.586 1.775 2.378 4.209 2.378 7.301zm-5.604.033c0-1.105-.09-2.032-.257-2.768-.167-.737-.414-1.329-.714-1.775-.324-.469-.692-.793-1.105-.972a3.415 3.415 0 00-1.396-.279c-.491 0-.938.078-1.34.235-.402.156-.77.469-1.105.926-.313.435-.569 1.027-.748 1.775-.19.759-.279 1.708-.279 2.847 0 1.15.089 2.076.268 2.769.179.703.413 1.261.692 1.685.291.436.659.748 1.105.949.436.201.927.301 1.463.301.435 0 .881-.1 1.351-.301a2.522 2.522 0 001.094-.893c.324-.48.569-1.049.737-1.72.167-.669.245-1.607.245-2.791zm25.844 9.345h-6.039V41.24h-4.32c-.035.803-.057 1.44-.067 1.931-.01.491-.033 1.039-.056 1.653-.078 1.786-.224 3.248-.424 4.376-.213 1.127-.48 2.054-.794 2.779-.312.714-.636 1.284-.959 1.686-.334.402-.692.793-1.072 1.139-.369.336-.882.614-1.552.826-.67.212-1.272.324-1.831.324-.469 0-.938-.022-1.396-.056a14.512 14.512 0 00-.837-.067v-4.778h.156c.045 0 .111.011.212.022.101.012.201.022.29.022.246 0 .513-.034.781-.089.268-.067.491-.19.67-.38.726-.782 1.183-1.819 1.385-3.115.201-1.306.346-2.757.413-4.365.045-.882.089-1.853.123-2.936.044-1.083.078-2.121.101-3.125h15.227v18.754zm20.486-9.378c0 3.082-.792 5.516-2.367 7.291-1.585 1.774-3.816 2.667-6.709 2.667-2.868 0-6.084-.893-7.669-2.667-1.596-1.775-2.39-4.209-2.39-7.291 0-3.114.794-5.559 2.39-7.323 1.585-1.764 4.801-2.646 7.669-2.646 2.88 0 5.113.893 6.698 2.668 1.586 1.775 2.378 4.209 2.378 7.301zm-5.605.033c0-1.105-.089-2.032-.256-2.768-.167-.737-.413-1.329-.715-1.775-.324-.469-.692-.793-1.104-.972a3.418 3.418 0 00-1.396-.279c-.49 0-1.92.078-2.31.235-.403.156-.771.469-1.106.926-.313.435-.569 1.027-.748 1.775-.189.759-.279 1.708-.279 2.847 0 1.15.09 2.076.269 2.769.179.703.413 1.272.692 1.685.29.436.659.748 1.105.949.435.201 1.908.301 2.433.301.437 0 .883-.1 1.352-.301a2.534 2.534 0 001.094-.893c.323-.48.569-1.049.736-1.72.168-.669.247-1.607.247-2.791zm22.942-5.346h-5.448v14.692h-6.174V41.162h-6.006v-4.075h17.628zm11.342 9.779v-3.93c-.914.101-1.664.189-2.232.268a6.856 6.856 0 00-1.675.424c-.469.179-.849.447-1.105.815-.268.357-.39.848-.39 1.451 0 .882.223 1.496.658 1.82.446.334 1.094.491 1.954.491.479 0 .96-.123 1.462-.357a4.772 4.772 0 001.351-.982zm0 2.913c-.368.335-.702.647-1.004.904a6.19 6.19 0 01-1.194.803c-.481.257-.96.458-1.43.593-.457.134-1.104.2-1.943.2-1.551 0-3.672-.558-4.688-1.674-1.028-1.117-1.541-2.523-1.541-4.221 0-1.395.269-2.522.781-3.382.514-.86 2.099-1.541 3.08-2.043.994-.514 2.167-.872 3.539-1.072a59.254 59.254 0 014.433-.469v-.101c0-1.038-.356-1.752-1.071-2.143-.715-.391-1.775-.591-3.203-.591-.648 0-1.396.123-2.257.379-.858.246-2.533.57-3.359.96h-.469v-4.544c.547-.167 2.256-.368 3.46-.591a20.178 20.178 0 013.662-.347c3.026 0 5.225.536 6.608 1.619 1.385 1.083 2.077 2.724 2.077 4.934v12.796h-5.481v-1.987zm25.376 1.987h-5.896v-6.508h-1.205l-4.21 6.508h-6.82l5.023-7.345c-1.238-.614-2.154-1.361-2.724-2.233-.569-.882-.859-2.043-.859-3.505 0-1.039.19-1.909.569-2.613a5.532 5.532 0 011.54-1.797 5.716 5.716 0 012.021-.95c.782-.211 2.346-.324 3.295-.324h9.254v18.755zm-5.895-10.203v-4.656h-2.064c-.759 0-1.352.19-1.775.559-.423.369-.637.904-.637 1.619 0 .871.213 1.506.625 1.897.425.391 1.05.581 1.887.581zM83.549 76.829c0 4.555-1.585 8.139-3.93 10.751-2.344 2.612-5.66 3.93-9.947 3.93-4.253 0-7.569-1.317-9.924-3.93-2.355-2.613-3.953-6.196-3.953-10.751 0-4.589 1.597-8.193 3.953-10.796 2.355-2.601 5.66-3.906 9.924-3.906 4.276 0 7.581 1.316 9.925 3.93 2.344 2.611 3.952 6.207 3.952 10.762zm-8.73.057c0-1.631-.123-2.992-.391-4.075-.257-1.094-.614-1.965-1.061-2.612-.48-.693-1.016-1.172-1.63-1.44-.603-.269-1.294-.401-2.076-.401a5.31 5.31 0 00-1.976.356c-.592.234-1.139.692-1.641 1.362-.458.637-.837 1.519-1.117 2.623-.279 1.117-.424 2.513-.424 4.198 0 1.685.134 3.047.391 4.086.256 1.037.614 1.864 1.027 2.489.436.637.971 1.105 1.63 1.396a5.239 5.239 0 002.166.446c.647 0 1.317-.155 1.998-.446a3.81 3.81 0 001.619-1.318c.48-.702.849-1.551 1.105-2.545.246-.992.368-2.366.368-4.107zm38.169-.425c0 4.422-1.061 7.982-3.17 10.695-2.121 2.712-4.734 4.063-7.837 4.063-1.295 0-2.434-.157-3.394-.469-.96-.313-1.987-.793-3.07-1.452v11.511H86.43v-37.8h9.087v2.88c1.195-1.071 2.412-1.964 3.651-2.635 1.239-.669 2.679-1.005 4.297-1.005 3.025 0 5.37 1.272 7.022 3.817 1.664 2.546 2.49 6.008 2.49 10.395zm-8.306.189c0-2.69-.39-4.655-1.183-5.86-.782-1.218-2.009-1.82-3.673-1.82a6.77 6.77 0 00-2.177.368 8.308 8.308 0 00-2.133 1.106v13.92c.436.2.905.347 1.429.425.524.09 1.139.123 1.865.123 1.987 0 3.46-.692 4.42-2.065s1.452-3.428 1.452-6.197zm38.727.191c0 4.554-1.171 8.139-3.517 10.75-2.344 2.613-6.219 3.93-10.505 3.93-4.253 0-7.569-1.316-9.925-3.93-2.355-2.611-3.539-6.196-3.539-10.75 0-4.588 1.184-8.194 3.539-10.796 2.355-2.602 5.66-3.906 9.925-3.906 4.275 0 8.139 1.316 10.482 3.928 2.344 2.613 3.528 6.208 3.528 10.763zm-8.863.055c0-1.63-.135-2.991-.392-4.074-.256-1.095-.613-1.966-1.061-2.613-.469-.692-1.027-1.172-1.629-1.44-.604-.268-1.296-.4-2.077-.4-.726 0-1.396.121-1.976.357-.592.233-1.15.68-1.642 1.361-.469.637-.837 1.517-1.115 2.623-.28 1.116-.425 2.512-.425 4.197 0 1.687.134 3.048.39 4.086.258 1.038.604 1.865 1.028 2.489.435.637.971 1.106 1.629 1.396a5.278 5.278 0 002.166.446c.648 0 1.317-.146 1.998-.446a3.74 3.74 0 001.619-1.318c.48-.702.85-1.552 1.094-2.545.245-.994.368-2.367.368-4.108zm37.644 13.766h-9.087V78.806h-8.406v11.856h-8.396V63.009h8.396v9.589h8.406v-9.589h9.087zm19.547-7.224v-5.794c-1.361.156-3.305.278-4.143.391-.847.1-1.663.324-2.488.625-.704.268-1.396.659-1.787 1.194-.39.536-.58 1.25-.58 2.144 0 1.307.324 2.199.971 2.68.659.49 1.754.736 3.025.736.703 0 2.268-.179 2.993-.524.736-.347 1.395-.837 1.998-1.451h.011zm0 4.287c-.558.492-1.05.949-1.485 1.34-.435.391-1.864.782-2.611 1.173-.715.379-1.43.67-2.11.871-.682.2-1.642.301-2.869.301-2.301 0-4.757-.826-6.274-2.467-1.518-1.653-1.998-3.718-1.998-6.219 0-2.065.112-3.728.882-4.989.771-1.273 1.876-2.277 3.327-3.015 1.462-.748 3.772-1.284 5.805-1.586 2.031-.29 5.058-.524 7.39-.691v-.156c0-1.52-.523-2.579-1.585-3.16-1.049-.579-2.634-.871-4.732-.871-.96 0-2.076.19-3.349.56-1.273.368-3.92.837-5.136 1.417h-.693v-6.698c.804-.245 3.495-.536 5.281-.87a29.253 29.253 0 015.414-.503c4.478 0 7.737.792 9.79 2.377 2.056 1.586 3.071 4.01 3.071 7.279v18.855h-8.118v-2.936z" fill="#fefefe"/><path d="M25.029 47.033H56.88v3.685H25.029zm11.878-30.621l4.053-4.053 4.052 4.053-4.052 4.052zm19.984 28.801H52.95l5.716-13.787a14.744 14.744 0 00-1.396-1.183l-6.386 14.97h-8.875v-23.23c8.317.501 15.406 3.159 21.166 8.183l-6.263 15.037zM54.01 28.624c-2.624-1.329-5.37-2.188-8.184-2.724v15.563h2.803l5.381-12.828zM25.108 45.213h3.94l-5.715-13.787c.424-.402.881-.804 1.395-1.183l6.386 14.97h8.875v-23.23c-8.317.501-15.406 3.159-21.167 8.183l6.263 15.037zm2.88-16.589c2.624-1.329 5.369-2.188 8.183-2.724v15.563h-2.802l-5.38-12.828v-.011z" fill="#fc0"/></svg>