<svg xmlns="http://www.w3.org/2000/svg" viewBox="0 0 394.217 144.076"><path d="M96.441 126.323c12.28 0 25.603 4.209 40.35 17.276 1.477 1.309 3.443-.318 2.155-1.943-14.492-18.297-27.896-21.783-41.264-24.728-16.35-3.603-24.76-12.803-30.622-22.904-1.167-2.01-1.69-1.656-1.794.927-.129 3.16.09 7.34.796 11.454-.66.031-1.323.022-1.99.022-23.392 0-42.355-18.963-42.355-42.354 0-23.393 18.963-42.356 42.355-42.356 23.392 0 42.356 18.963 42.356 42.356a42.9 42.9 0 01-.268 4.923c-3.095-.557-9.182-.62-13.452-.25-1.607.138-1.382.886-.167 1.106 14.001 2.53 23.621 11.207 25.82 26.952.05.363.524.47.712.157 5.761-9.613 9.07-20.865 9.07-32.888C128.144 28.687 99.459 0 64.073 0 28.686 0 0 28.687 0 64.073c0 35.386 28.686 64.075 64.072 64.075 9.388 0 18.701-1.825 32.37-1.825zm4.77-23.264c2.85 2.41 3.718 5.276 2.21 7.297-.839 1.108-2.197 1.719-3.827 1.719-1.6 0-3.229-.592-4.36-1.579-2.592-2.266-3.353-5.937-1.66-8.024.66-.816 1.735-1.266 3.023-1.266 1.564 0 3.203.66 4.613 1.853zm13.153-6.12c.418 2.808-.47 3.97-1.36 3.97-.972 0-2.192-1.138-3.632-3.384-1.42-2.217-1.94-4.761-1.236-6.046.465-.851 1.438-1.22 2.666-.756 2.378.899 3.311 4.538 3.562 6.216zm88.816-14.674l-7.387-8.884c-.773-.932-.11-2.344 1.1-2.344h15.453a21.828 21.828 0 001.152-6.961c0-11.13-8.284-20.725-19.653-20.725-11.37 0-19.653 9.596-19.653 20.725 0 11.13 8.284 20.59 19.653 20.59 3.445 0 6.601-.88 9.335-2.4zm33.422 15.015c.803.888.144 2.317-1.065 2.317h-16.864a2.31 2.31 0 01-1.776-.833l-2.859-3.437a37 37 0 01-20.193 5.977c-20.528 0-37.228-16.7-37.228-37.228 0-20.528 16.7-37.23 37.228-37.23 20.528 0 37.228 16.702 37.228 37.23a36.99 36.99 0 01-5.916 20.097zm155.784-68.72h-13.762c-1.01 0-1.83.82-1.83 1.832V97.76c0 1.01.82 1.83 1.83 1.83h13.762c1.011 0 1.831-.82 1.831-1.83V30.392c0-1.012-.82-1.832-1.83-1.832zm-23.158 0h-15.399c-.805 0-1.516.521-1.75 1.287l-12.186 39.812-13.392-39.856a1.828 1.828 0 00-1.736-1.243H314.02c-.788 0-1.488.5-1.738 1.243L298.89 69.659l-12.185-39.812a1.827 1.827 0 00-1.75-1.287h-15.4c-.587 0-1.14.281-1.485.755a1.803 1.803 0 00-.25 1.636l22.616 67.405a1.83 1.83 0 001.737 1.241h12.221c.788 0 1.487-.5 1.738-1.24l13.26-39.38 13.26 39.38c.25.74.95 1.24 1.737 1.24h12.221c.788 0 1.488-.5 1.738-1.241l22.616-67.405a1.803 1.803 0 00-.25-1.636 1.837 1.837 0 00-1.486-.755zM261.99 30.392V97.76c0 1.01-.82 1.83-1.83 1.83h-13.763a1.83 1.83 0 01-1.83-1.83V30.392c0-1.012.82-1.832 1.83-1.832h13.763c1.01 0 1.83.82 1.83 1.832" fill="#f57d14"/></svg>