<svg xmlns="http://www.w3.org/2000/svg" xmlns:xlink="http://www.w3.org/1999/xlink"><symbol id="bank" viewBox="0 0 129.451 132.543"><path d="M77.132 93.583c0-1.136-.459-1.987-1.373-2.559-.914-.567-2.201-.852-3.857-.852h-4.967v12.378h5.767c1.534 0 2.731-.297 3.587-.893.856-.595 1.285-1.472 1.285-2.629 0-.673-.219-1.27-.657-1.792-.438-.521-1.049-.879-1.83-1.07.65-.235 1.154-.581 1.511-1.034.355-.454.534-.97.534-1.549zm-7.906-1.638h2.676c.967 0 1.699.149 2.195.445.496.294.745.734.745 1.318 0 .568-.248.993-.739 1.271-.491.282-1.222.421-2.192.421h-2.685zm6.045 7.025c0 .597-.217 1.051-.65 1.369-.434.317-1.073.475-1.919.475h-3.476v-3.686h3.476c.846 0 1.485.163 1.919.482.433.321.65.775.65 1.36zm7.726-5.978c.517-.85 1.375-1.274 2.575-1.274.829 0 1.516.264 2.057.795.545.53.814 1.173.814 1.927h2.07l.022-.067c.032-1.243-.419-2.292-1.354-3.146-.933-.854-2.136-1.282-3.609-1.282-1.822 0-3.22.59-4.191 1.768-.973 1.18-1.459 2.65-1.459 4.41v.482c0 1.775.485 3.252 1.452 4.427.97 1.174 2.37 1.762 4.198 1.762 1.333 0 2.501-.415 3.507-1.246 1.002-.832 1.484-1.781 1.446-2.85l-.022-.068h-2.06c0 .67-.287 1.237-.864 1.698a3.113 3.113 0 01-2.007.691c-1.209 0-2.07-.42-2.581-1.261-.511-.842-.766-1.896-.766-3.16v-.479c.001-1.237.256-2.278.772-3.127zM32.176 75.694h64.88a5.406 5.406 0 005.407-5.406V18.023a5.406 5.406 0 00-5.407-5.407L65.065 0l-32.89 12.616a5.405 5.405 0 00-5.407 5.407v52.265a5.407 5.407 0 005.408 5.406zm32.44-64.881l29.458 21.611H35.155zM39.868 38.035l-1.178-2.054h14.14l-1.178 2.054h-2.356v23.288h-7.07V38.035zm51.724 24.889v1.904H37.64v-1.904zM58.723 38.035l-1.177-2.054h14.14l-1.178 2.054H68.15v23.288h-7.07V38.035zm18.855 0l-1.18-2.054h14.143l-1.18 2.054h-2.357v23.288h-7.069V38.035zM33.977 66.581h61.277v1.905H33.977zm90.382 21.567c1.061 0 1.906-.277 2.534-.834.629-.558.926-1.277.895-2.164l-.023-.068h-1.755c0 .497-.136.901-.406 1.218-.273.316-.687.476-1.244.476-.573 0-.992-.156-1.257-.468-.265-.313-.395-.721-.395-1.226h-1.757l-.022.068c-.039.887.255 1.606.884 2.164.627.557 1.476.834 2.546.834zM64.616 19.053a4.71 4.71 0 00-4.714 4.707 4.711 4.711 0 004.714 4.709 4.71 4.71 0 100-9.416zM6.465 92.485H2.291v-4.818h8.091v-1.771H0v16.655h6.465c1.798 0 3.202-.468 4.209-1.406 1.007-.938 1.51-2.161 1.51-3.672 0-1.503-.502-2.71-1.505-3.621-1.002-.913-2.408-1.367-4.214-1.367zm2.57 7.329c-.574.643-1.43.964-2.57.964H2.291v-6.521h4.174c1.147 0 2.006.304 2.576.913.569.609.854 1.366.854 2.272.001.94-.287 1.728-.86 2.372zm81.199 15.362c-1.728 0-3.096.593-4.105 1.778-1.005 1.187-1.508 2.695-1.508 4.526v.25c0 1.839.504 3.347 1.516 4.526 1.011 1.177 2.386 1.768 4.121 1.768 1.736 0 3.107-.589 4.116-1.764 1.006-1.173 1.512-2.684 1.512-4.53v-.25c0-1.839-.507-3.348-1.518-4.53-1.011-1.183-2.389-1.774-4.134-1.774zm3.361 6.551c0 1.31-.283 2.389-.849 3.245-.565.853-1.395 1.278-2.488 1.278-1.106 0-1.944-.426-2.505-1.278-.563-.856-.844-1.936-.844-3.245v-.252c0-1.296.28-2.374.844-3.233.561-.862 1.388-1.291 2.481-1.291 1.103 0 1.937.429 2.507 1.291.57.859.854 1.938.854 3.233zm-13.813-.329c.65-.235 1.156-.581 1.512-1.035.357-.453.535-.97.535-1.548 0-1.138-.458-1.989-1.372-2.56-.915-.566-2.201-.852-3.86-.852h-4.965v12.378h5.767c1.535 0 2.73-.298 3.587-.893.857-.595 1.285-1.471 1.285-2.63a2.71 2.71 0 00-.657-1.791c-.438-.519-1.049-.876-1.832-1.069zm-5.859-4.22h2.674c.97 0 1.701.148 2.196.444.497.295.746.735.746 1.317 0 .568-.247.993-.739 1.272-.491.281-1.223.422-2.192.422h-2.685zm5.394 8.391c-.435.317-1.073.476-1.919.476h-3.476v-3.686h3.476c.846 0 1.484.162 1.919.482.435.32.651.774.651 1.36.001.596-.216 1.052-.651 1.368zM63.9 115.176c-1.456 0-2.719.585-3.785 1.756-1.064 1.172-1.598 2.637-1.598 4.4v.503c0 1.83.518 3.319 1.552 4.468 1.035 1.147 2.429 1.722 4.181 1.722 1.045 0 1.938-.147 2.673-.438.737-.292 1.328-.658 1.78-1.093l-.897-1.468c-.426.383-.93.681-1.517.897-.584.218-1.266.327-2.039.327-1.063 0-1.889-.381-2.478-1.146-.589-.765-.896-1.74-.918-2.928l.034-.056h8.162v-1.408c0-1.676-.435-3.02-1.303-4.026-.866-1.007-2.149-1.51-3.847-1.51zm2.862 5.17h-5.804l-.022-.057c.124-.956.458-1.752 1-2.388.544-.635 1.199-.951 1.965-.951.946 0 1.659.296 2.14.888.479.594.722 1.331.722 2.212v.296zm37.298-17.795l.034-.057-5.325-6.395 4.93-5.868-.035-.059h-2.687l-4.149 5.229h-1.325v-5.229h-2.292v12.378h2.292V97.3h1.499l4.245 5.25h2.813zm4.011-3.568l-.071-.024v-8.786h-2.279v12.378H108l5.559-8.809.067.024v8.784h2.292V90.172h-2.292zm19.089-8.81l-5.558 8.811-.069-.024v-8.786h-2.277v12.378h2.277l5.558-8.809.069.024v8.784h2.291V90.173zm-91.384 12.378h2.29V90.173h-2.29v5.354h-5.604v-5.354H27.88v12.378h2.292v-5.25h5.604zM64.121 96.5v-.252c0-1.837-.504-3.348-1.517-4.53-1.013-1.182-2.389-1.774-4.134-1.774-1.728 0-3.097.593-4.104 1.781-1.008 1.185-1.511 2.692-1.511 4.523v.252c0 1.837.505 3.346 1.518 4.524 1.011 1.178 2.385 1.768 4.121 1.768 1.735 0 3.109-.588 4.115-1.762 1.009-1.175 1.512-2.684 1.512-4.53zm-2.289-.006c0 1.31-.284 2.391-.849 3.245-.566.853-1.396 1.278-2.489 1.278-1.108 0-1.942-.426-2.506-1.278-.562-.854-.841-1.936-.841-3.245v-.251c0-1.295.279-2.375.841-3.233.563-.863 1.39-1.292 2.482-1.292 1.101 0 1.938.429 2.506 1.292.57.858.855 1.938.855 3.233v.251zm-24.057 18.682c-1.457 0-2.719.585-3.784 1.756-1.067 1.172-1.599 2.637-1.599 4.4v.503c0 1.83.518 3.319 1.551 4.468 1.034 1.147 2.429 1.722 4.18 1.722 1.047 0 1.938-.147 2.675-.438.736-.292 1.329-.658 1.778-1.093l-.895-1.468a4.648 4.648 0 01-1.517.897c-.586.218-1.265.327-2.042.327-1.062 0-1.886-.381-2.476-1.146-.59-.765-.895-1.74-.919-2.928l.036-.056h8.162v-1.408c0-1.676-.435-3.02-1.302-4.026-.868-1.007-2.149-1.51-3.848-1.51zm2.861 5.17h-5.801l-.022-.057c.123-.956.457-1.752 1-2.388.542-.635 1.197-.951 1.964-.951.945 0 1.66.296 2.141.888.48.594.72 1.331.72 2.212v.296zm-18.369-19.649c.007.29.032.579.076.865.042.285.102.615.179.988h2.36a6.447 6.447 0 01-.255-1.213 11.29 11.29 0 01-.07-1.281v-5.959c0-1.343-.434-2.369-1.303-3.084-.868-.712-2.015-1.07-3.441-1.07-1.44 0-2.619.376-3.528 1.123-.91.746-1.342 1.571-1.297 2.472l.025.066h2.186c0-.518.23-.962.691-1.332.462-.37 1.06-.555 1.796-.555.821 0 1.457.212 1.907.634.449.424.674.998.674 1.723v1.225h-2.489c-1.667 0-2.987.333-3.958 1.001-.974.667-1.459 1.592-1.459 2.775 0 1.158.343 2.067 1.028 2.728.687.658 1.684.989 2.994.989.792 0 1.53-.201 2.216-.601a5.325 5.325 0 001.668-1.494zm-5.094-.283c-.349-.318-.523-.753-.523-1.301 0-.616.278-1.152.833-1.609.553-.457 1.292-.685 2.214-.685h2.57v2.01c-.202.537-.636 1.019-1.302 1.435a4.134 4.134 0 01-2.244.629c-.684 0-1.198-.161-1.548-.479zm34.112 14.762c-.812 0-1.526.156-2.138.469a4.13 4.13 0 00-1.535 1.361l-.36-1.602h-1.757v17.139h2.292v-6.053c.41.51.908.895 1.494 1.149.584.256 1.266.385 2.04.385 1.527 0 2.724-.549 3.592-1.644.869-1.093 1.302-2.533 1.302-4.317v-.241c0-1.998-.432-3.605-1.296-4.822-.863-1.216-2.076-1.824-3.634-1.824zm2.641 6.882c0 1.233-.28 2.239-.838 3.021-.559.779-1.38 1.172-2.465 1.172-.673 0-1.244-.142-1.708-.43a3.224 3.224 0 01-1.128-1.193v-5.976a3.302 3.302 0 011.128-1.206c.464-.291 1.025-.439 1.685-.439 1.094 0 1.921.452 2.482 1.355.562.9.844 2.053.844 3.457zm-1.548-19.507l.036-.057-5.324-6.395 4.928-5.868-.034-.059h-2.686l-4.152 5.229h-1.325v-5.229h-2.29v12.378h2.29V97.3h1.5l4.246 5.25h2.811zm-33.006 25.231h2.289v-10.604h5.616v10.604h2.29v-12.378H19.372zm89.743-12.378h-8.219l-.187 4.651c-.116 1.646-.345 2.867-.686 3.663a8.606 8.606 0 01-1.478 2.292h-.987l.219 5.409h2.07v-3.638h8.65v3.638h2.07l.222-5.409h-1.676v-10.606zm-2.289 10.607h-5.641c.497-.663.902-1.479 1.215-2.444.315-.97.515-2.138.602-3.509l.103-2.651h3.722v8.604z" fill="#737e8b"/></symbol><symbol id="contact" viewBox="0 0 222.342 93.488"><path d="M111.062 70.321l-7.742 16.761c-15.772-.062-27.995-.152-30.882-.277-9.753-.431-5.514-8.166-5.514-8.166L123.317 0 88.55 70.321zm13.015 0h84.474l-10.178 16.905s-49.543.004-86.642-.114z" clip-rule="evenodd" fill="#039dff" fill-rule="evenodd"/><path d="M162.916 14.849l-60.632 78.639 39.006-69.875h-25.25l7.163-16.836c17.141.029 30.744.065 34.2.109 9.761.121 5.513 7.963 5.513 7.963zm-60.74 8.764H18.748L28.923 6.684s47.72.025 85.184.079z" clip-rule="evenodd" fill="#039dff" fill-rule="evenodd"/><path d="M11.722 55.856c-4.148 0-5.496-3.826-3.437-8.791 2.077-5.012 6.574-8.793 10.724-8.793 2.436 0 3.774 2.008 3.611 4.42l6.977-3.233c.003-3.963-1.589-8.108-7.718-8.108-7.804 0-16.367 6.333-20.256 15.715-3.869 9.339-.572 15.716 7.23 15.716 6.127 0 11.215-4.282 14.457-8.154l-4.313-3.187c-1.838 2.414-4.84 4.415-7.275 4.415zm36.344-24.505c-7.766 0-16.27 6.469-20.102 15.715-3.834 9.248-.689 15.716 7.076 15.716s16.232-6.468 20.064-15.716c3.834-9.247.728-15.715-7.038-15.715zm.38 15.714c-2.04 4.92-6.349 8.791-10.535 8.791-4.188 0-5.323-3.871-3.285-8.791 2.056-4.965 6.384-8.793 10.57-8.793 4.19 0 5.304 3.828 3.25 8.793zm26.362 1.504l-3.35-16.717H64.72L52.13 62.235h6.547l7.286-17.584 3.45 17.584h6.318l12.592-30.383h-6.585zm61.29 13.666h7.422l3.068-4.376H156.6l-.556 4.376h7.422l3.037-30.383h-8.262zm21.543-11.207h-6.432l7.974-11.434zm21.563 4.828c-4.149 0-5.495-3.826-3.437-8.791 2.074-5.012 6.572-8.793 10.722-8.793 2.436 0 3.776 2.008 3.613 4.42l6.975-3.233c.006-3.963-1.59-8.108-7.717-8.108-7.806 0-16.366 6.333-20.255 15.715-3.87 9.339-.575 15.716 7.228 15.716 6.13 0 11.216-4.282 14.457-8.154l-4.313-3.187c-1.838 2.414-4.837 4.415-7.273 4.415zm22.393-24.004l-2.832 6.833h7.12l-9.76 23.55h6.545l9.762-23.55h7.08l2.83-6.833zm-92.167 6.833h7.118l-9.759 23.55h6.546l9.76-23.55h7.081l2.832-6.833H112.26z"/></symbol><symbol id="korona" viewBox="0 0 224.458 114.619"><path d="M9.757 0h204.944c5.369 0 9.757 4.387 9.757 9.757v95.104c0 5.37-4.388 9.758-9.757 9.758H9.757c-5.37 0-9.757-4.388-9.757-9.758V9.758C0 4.388 4.388 0 9.757 0z" fill="#e5335b"/><path d="M57.326 90.65H47.022l-9.657-14.837h-2.333V90.65h-9.657V53.966h9.657v14.938c1.351-.068 2.512-.392 3.17-.961.659-.569 1.898-1.831 2.813-3.785.268-.569.569-1.25.915-2.031.357-.793.659-1.485.927-2.065 1.004-2.21 2.221-3.785 3.672-4.723 1.44-.938 3.338-1.418 5.705-1.418.77 0 1.406.011 1.92.034.502.022.904.044 1.184.044v7.849h-1.999c-.982 0-1.842.323-2.579.971-.736.648-1.473 1.932-2.232 3.874-.603 1.541-1.172 2.702-1.697 3.495-.536.792-1.038 1.327-1.496 1.606l11.99 18.878v-.022zm26.112-46.609c.525.48.938 1.072 1.25 1.786.313.704.469 1.575.469 2.59 0 2.49-.893 4.432-2.679 5.828-1.786 1.396-4.354 2.099-7.691 2.099-1.519 0-2.97-.146-4.354-.436-1.384-.29-2.646-.681-3.795-1.184v-5.57h.524c.781.581 1.808 1.139 3.081 1.675 1.272.547 2.523.826 3.74.826 1.574 0 2.824-.301 3.751-.904.926-.603 1.384-1.519 1.384-2.769 0-1.083-.335-1.875-1.016-2.4-.681-.525-1.898-.782-3.65-.782h-3.338v-4.454h3.17c1.451 0 2.512-.234 3.193-.704.67-.468 1.005-1.172 1.005-2.121 0-.837-.369-1.44-1.105-1.82-.748-.38-1.73-.569-2.97-.569a8.89 8.89 0 00-1.987.223c-.625.156-1.239.346-1.841.581a12.41 12.41 0 00-1.552.726c-.48.268-.837.458-1.083.592h-.547v-5.181c.681-.301 1.786-.647 3.316-1.049a19.603 19.603 0 014.833-.591c2.992 0 5.236.536 6.732 1.596 1.485 1.061 2.232 2.546 2.232 4.443 0 1.418-.402 2.635-1.228 3.662-.815 1.028-1.864 1.708-3.148 2.055v.246c.48.089 1.038.278 1.674.558a5.739 5.739 0 011.619 1.039zm21.858 2.434c0 3.082-.792 5.516-2.367 7.291-1.585 1.774-3.818 2.667-6.709 2.667-2.869 0-5.102-.893-6.698-2.667-1.596-1.775-2.389-4.209-2.389-7.291 0-3.114.792-5.559 2.389-7.323 1.597-1.764 3.818-2.646 6.698-2.646 2.88 0 5.113.893 6.698 2.668 1.586 1.775 2.378 4.209 2.378 7.301zm-5.604.033c0-1.105-.09-2.032-.257-2.768-.167-.737-.414-1.329-.714-1.775-.324-.469-.692-.793-1.105-.972a3.415 3.415 0 00-1.396-.279c-.491 0-.938.078-1.34.235-.402.156-.77.469-1.105.926-.313.435-.569 1.027-.748 1.775-.19.759-.279 1.708-.279 2.847 0 1.15.089 2.076.268 2.769.179.703.413 1.261.692 1.685.291.436.659.748 1.105.949.436.201.927.301 1.463.301.435 0 .881-.1 1.351-.301a2.522 2.522 0 001.094-.893c.324-.48.569-1.049.737-1.72.167-.669.245-1.607.245-2.791zm25.844 9.345h-6.039V41.24h-4.32c-.035.803-.057 1.44-.067 1.931-.01.491-.033 1.039-.056 1.653-.078 1.786-.224 3.248-.424 4.376-.213 1.127-.48 2.054-.794 2.779-.312.714-.636 1.284-.959 1.686-.334.402-.692.793-1.072 1.139-.369.336-.882.614-1.552.826-.67.212-1.272.324-1.831.324-.469 0-.938-.022-1.396-.056a14.512 14.512 0 00-.837-.067v-4.778h.156c.045 0 .111.011.212.022.101.012.201.022.29.022.246 0 .513-.034.781-.089.268-.067.491-.19.67-.38.726-.782 1.183-1.819 1.385-3.115.201-1.306.346-2.757.413-4.365.045-.882.089-1.853.123-2.936.044-1.083.078-2.121.101-3.125h15.227v18.754zm20.486-9.378c0 3.082-.792 5.516-2.367 7.291-1.585 1.774-3.816 2.667-6.709 2.667-2.868 0-6.084-.893-7.669-2.667-1.596-1.775-2.39-4.209-2.39-7.291 0-3.114.794-5.559 2.39-7.323 1.585-1.764 4.801-2.646 7.669-2.646 2.88 0 5.113.893 6.698 2.668 1.586 1.775 2.378 4.209 2.378 7.301zm-5.605.033c0-1.105-.089-2.032-.256-2.768-.167-.737-.413-1.329-.715-1.775-.324-.469-.692-.793-1.104-.972a3.418 3.418 0 00-1.396-.279c-.49 0-1.92.078-2.31.235-.403.156-.771.469-1.106.926-.313.435-.569 1.027-.748 1.775-.189.759-.279 1.708-.279 2.847 0 1.15.09 2.076.269 2.769.179.703.413 1.272.692 1.685.29.436.659.748 1.105.949.435.201 1.908.301 2.433.301.437 0 .883-.1 1.352-.301a2.534 2.534 0 001.094-.893c.323-.48.569-1.049.736-1.72.168-.669.247-1.607.247-2.791zm22.942-5.346h-5.448v14.692h-6.174V41.162h-6.006v-4.075h17.628zm11.342 9.779v-3.93c-.914.101-1.664.189-2.232.268a6.856 6.856 0 00-1.675.424c-.469.179-.849.447-1.105.815-.268.357-.39.848-.39 1.451 0 .882.223 1.496.658 1.82.446.334 1.094.491 1.954.491.479 0 .96-.123 1.462-.357a4.772 4.772 0 001.351-.982zm0 2.913c-.368.335-.702.647-1.004.904a6.19 6.19 0 01-1.194.803c-.481.257-.96.458-1.43.593-.457.134-1.104.2-1.943.2-1.551 0-3.672-.558-4.688-1.674-1.028-1.117-1.541-2.523-1.541-4.221 0-1.395.269-2.522.781-3.382.514-.86 2.099-1.541 3.08-2.043.994-.514 2.167-.872 3.539-1.072a59.254 59.254 0 014.433-.469v-.101c0-1.038-.356-1.752-1.071-2.143-.715-.391-1.775-.591-3.203-.591-.648 0-1.396.123-2.257.379-.858.246-2.533.57-3.359.96h-.469v-4.544c.547-.167 2.256-.368 3.46-.591a20.178 20.178 0 013.662-.347c3.026 0 5.225.536 6.608 1.619 1.385 1.083 2.077 2.724 2.077 4.934v12.796h-5.481v-1.987zm25.376 1.987h-5.896v-6.508h-1.205l-4.21 6.508h-6.82l5.023-7.345c-1.238-.614-2.154-1.361-2.724-2.233-.569-.882-.859-2.043-.859-3.505 0-1.039.19-1.909.569-2.613a5.532 5.532 0 011.54-1.797 5.716 5.716 0 012.021-.95c.782-.211 2.346-.324 3.295-.324h9.254v18.755zm-5.895-10.203v-4.656h-2.064c-.759 0-1.352.19-1.775.559-.423.369-.637.904-.637 1.619 0 .871.213 1.506.625 1.897.425.391 1.05.581 1.887.581zM83.549 76.829c0 4.555-1.585 8.139-3.93 10.751-2.344 2.612-5.66 3.93-9.947 3.93-4.253 0-7.569-1.317-9.924-3.93-2.355-2.613-3.953-6.196-3.953-10.751 0-4.589 1.597-8.193 3.953-10.796 2.355-2.601 5.66-3.906 9.924-3.906 4.276 0 7.581 1.316 9.925 3.93 2.344 2.611 3.952 6.207 3.952 10.762zm-8.73.057c0-1.631-.123-2.992-.391-4.075-.257-1.094-.614-1.965-1.061-2.612-.48-.693-1.016-1.172-1.63-1.44-.603-.269-1.294-.401-2.076-.401a5.31 5.31 0 00-1.976.356c-.592.234-1.139.692-1.641 1.362-.458.637-.837 1.519-1.117 2.623-.279 1.117-.424 2.513-.424 4.198 0 1.685.134 3.047.391 4.086.256 1.037.614 1.864 1.027 2.489.436.637.971 1.105 1.63 1.396a5.239 5.239 0 002.166.446c.647 0 1.317-.155 1.998-.446a3.81 3.81 0 001.619-1.318c.48-.702.849-1.551 1.105-2.545.246-.992.368-2.366.368-4.107zm38.169-.425c0 4.422-1.061 7.982-3.17 10.695-2.121 2.712-4.734 4.063-7.837 4.063-1.295 0-2.434-.157-3.394-.469-.96-.313-1.987-.793-3.07-1.452v11.511H86.43v-37.8h9.087v2.88c1.195-1.071 2.412-1.964 3.651-2.635 1.239-.669 2.679-1.005 4.297-1.005 3.025 0 5.37 1.272 7.022 3.817 1.664 2.546 2.49 6.008 2.49 10.395zm-8.306.189c0-2.69-.39-4.655-1.183-5.86-.782-1.218-2.009-1.82-3.673-1.82a6.77 6.77 0 00-2.177.368 8.308 8.308 0 00-2.133 1.106v13.92c.436.2.905.347 1.429.425.524.09 1.139.123 1.865.123 1.987 0 3.46-.692 4.42-2.065s1.452-3.428 1.452-6.197zm38.727.191c0 4.554-1.171 8.139-3.517 10.75-2.344 2.613-6.219 3.93-10.505 3.93-4.253 0-7.569-1.316-9.925-3.93-2.355-2.611-3.539-6.196-3.539-10.75 0-4.588 1.184-8.194 3.539-10.796 2.355-2.602 5.66-3.906 9.925-3.906 4.275 0 8.139 1.316 10.482 3.928 2.344 2.613 3.528 6.208 3.528 10.763zm-8.863.055c0-1.63-.135-2.991-.392-4.074-.256-1.095-.613-1.966-1.061-2.613-.469-.692-1.027-1.172-1.629-1.44-.604-.268-1.296-.4-2.077-.4-.726 0-1.396.121-1.976.357-.592.233-1.15.68-1.642 1.361-.469.637-.837 1.517-1.115 2.623-.28 1.116-.425 2.512-.425 4.197 0 1.687.134 3.048.39 4.086.258 1.038.604 1.865 1.028 2.489.435.637.971 1.106 1.629 1.396a5.278 5.278 0 002.166.446c.648 0 1.317-.146 1.998-.446a3.74 3.74 0 001.619-1.318c.48-.702.85-1.552 1.094-2.545.245-.994.368-2.367.368-4.108zm37.644 13.766h-9.087V78.806h-8.406v11.856h-8.396V63.009h8.396v9.589h8.406v-9.589h9.087zm19.547-7.224v-5.794c-1.361.156-3.305.278-4.143.391-.847.1-1.663.324-2.488.625-.704.268-1.396.659-1.787 1.194-.39.536-.58 1.25-.58 2.144 0 1.307.324 2.199.971 2.68.659.49 1.754.736 3.025.736.703 0 2.268-.179 2.993-.524.736-.347 1.395-.837 1.998-1.451h.011zm0 4.287c-.558.492-1.05.949-1.485 1.34-.435.391-1.864.782-2.611 1.173-.715.379-1.43.67-2.11.871-.682.2-1.642.301-2.869.301-2.301 0-4.757-.826-6.274-2.467-1.518-1.653-1.998-3.718-1.998-6.219 0-2.065.112-3.728.882-4.989.771-1.273 1.876-2.277 3.327-3.015 1.462-.748 3.772-1.284 5.805-1.586 2.031-.29 5.058-.524 7.39-.691v-.156c0-1.52-.523-2.579-1.585-3.16-1.049-.579-2.634-.871-4.732-.871-.96 0-2.076.19-3.349.56-1.273.368-3.92.837-5.136 1.417h-.693v-6.698c.804-.245 3.495-.536 5.281-.87a29.253 29.253 0 015.414-.503c4.478 0 7.737.792 9.79 2.377 2.056 1.586 3.071 4.01 3.071 7.279v18.855h-8.118v-2.936z" fill="#fefefe"/><path d="M25.029 47.033H56.88v3.685H25.029zm11.878-30.621l4.053-4.053 4.052 4.053-4.052 4.052zm19.984 28.801H52.95l5.716-13.787a14.744 14.744 0 00-1.396-1.183l-6.386 14.97h-8.875v-23.23c8.317.501 15.406 3.159 21.166 8.183l-6.263 15.037zM54.01 28.624c-2.624-1.329-5.37-2.188-8.184-2.724v15.563h2.803l5.381-12.828zM25.108 45.213h3.94l-5.715-13.787c.424-.402.881-.804 1.395-1.183l6.386 14.97h8.875v-23.23c-8.317.501-15.406 3.159-21.167 8.183l6.263 15.037zm2.88-16.589c2.624-1.329 5.369-2.188 8.183-2.724v15.563h-2.802l-5.38-12.828v-.011z" fill="#fc0"/></symbol><symbol id="mastercard" viewBox="0 0 2000 1556"><path d="M1960.59 1534.9v4h3.73a3.93 3.93 0 002-.51 1.78 1.78 0 00.75-1.53 1.71 1.71 0 00-.75-1.49 3.59 3.59 0 00-2-.51h-3.73zm3.77-2.83a6.92 6.92 0 014.48 1.3 4.3 4.3 0 011.57 3.54 4.06 4.06 0 01-1.26 3.11 6.14 6.14 0 01-3.58 1.49l5 5.7h-3.85l-4.6-5.66h-1.49v5.66h-3.22v-15.13h7zm-1 20.36a12 12 0 004.91-1 12.86 12.86 0 004-2.71 12.63 12.63 0 002.71-4 12.94 12.94 0 000-9.9 13.07 13.07 0 00-2.71-4 12.89 12.89 0 00-4-2.71 12.59 12.59 0 00-4.91-.94 13.12 13.12 0 00-5 .94 12.77 12.77 0 00-4.09 2.71 12.92 12.92 0 00-2.67 14 11.92 11.92 0 002.67 4 12.81 12.81 0 004.09 2.71 12.45 12.45 0 005 1m0-29a16.74 16.74 0 0111.75 4.8 16 16 0 013.54 5.19 16.09 16.09 0 010 12.65 16.88 16.88 0 01-3.54 5.19 17.85 17.85 0 01-5.27 3.5 16.33 16.33 0 01-6.48 1.3 16.6 16.6 0 01-6.56-1.3 17.08 17.08 0 01-5.31-3.5 16.88 16.88 0 01-3.49-5.36 16.09 16.09 0 010-12.65 16 16 0 013.54-5.19 15.8 15.8 0 015.31-3.5 16.6 16.6 0 016.56-1.3M432.16 1465.1c0-28.85 18.9-52.55 49.79-52.55 29.52 0 49.44 22.68 49.44 52.55s-19.92 52.55-49.44 52.55c-30.89 0-49.79-23.7-49.79-52.55m132.88 0V1383h-35.69v20c-11.32-14.78-28.49-24.05-51.84-24.05-46 0-82.1 36.08-82.1 86.19s36.08 86.19 82.1 86.19c23.34 0 40.52-9.28 51.84-24.05v19.93H565v-82.11zm1205.92 0c0-28.85 18.9-52.55 49.8-52.55 29.55 0 49.44 22.68 49.44 52.55s-19.89 52.55-49.44 52.55c-30.89 0-49.8-23.7-49.8-52.55m132.92 0v-148h-35.72v85.9c-11.32-14.78-28.49-24.05-51.84-24.05-46 0-82.1 36.08-82.1 86.19s36.08 86.19 82.1 86.19c23.35 0 40.52-9.28 51.84-24.05v19.93h35.72v-82.11zM1008 1410.86c23 0 37.77 14.42 41.54 39.81h-85.16c3.81-23.7 18.2-39.81 43.63-39.81m.71-32c-48.1 0-81.75 35-81.75 86.19 0 52.19 35 86.19 84.14 86.19 24.72 0 47.36-6.17 67.28-23l-17.49-26.45c-13.76 11-31.28 17.17-47.75 17.17-23 0-43.94-10.65-49.09-40.2h121.87c.35-4.44.71-8.92.71-13.72-.36-51.17-32-86.19-77.94-86.19m430.9 86.19c0-28.85 18.9-52.55 49.79-52.55 29.52 0 49.44 22.68 49.44 52.55s-19.92 52.55-49.44 52.55c-30.89 0-49.8-23.7-49.8-52.55m132.88 0V1383h-35.67v20c-11.36-14.78-28.49-24.05-51.84-24.05-46 0-82.1 36.08-82.1 86.19s36.08 86.19 82.1 86.19c23.35 0 40.48-9.28 51.84-24.05v19.93h35.68v-82.11zm-334.42 0c0 49.79 34.66 86.19 87.56 86.19 24.72 0 41.19-5.5 59-19.57l-17.14-28.85c-13.4 9.63-27.47 14.78-43 14.78-28.49-.35-49.44-20.95-49.44-52.55s20.95-52.19 49.44-52.55c15.49 0 29.56 5.15 43 14.78l17.14-28.85c-17.84-14.07-34.31-19.57-59-19.57-52.9 0-87.56 36.39-87.56 86.19m460.1-86.19c-20.59 0-34 9.63-43.27 24.05V1383h-35.37v164.12h35.73v-92c0-27.16 11.67-42.25 35-42.25a57.87 57.87 0 0122.32 4.13l11-33.64c-7.9-3.11-18.2-4.48-25.43-4.48m-956.64 17.17c-17.17-11.32-40.83-17.17-66.93-17.17-41.58 0-68.35 19.93-68.35 52.54 0 26.76 19.93 43.27 56.63 48.42l16.86 2.4c19.57 2.75 28.81 7.9 28.81 17.17 0 12.69-13 19.93-37.41 19.93-24.72 0-42.56-7.9-54.59-17.17L599.74 1530c19.57 14.42 44.29 21.3 71.06 21.3 47.4 0 74.87-22.32 74.87-53.57 0-28.85-21.62-43.94-57.34-49.09l-16.82-2.44c-15.45-2-27.83-5.11-27.83-16.11 0-12 11.67-19.22 31.25-19.22 20.95 0 41.23 7.9 51.17 14.07l15.45-28.85zm460.51-17.14c-20.59 0-34 9.63-43.23 24.05V1383h-35.37v164.12h35.69v-92c0-27.16 11.67-42.25 35-42.25a57.87 57.87 0 0122.32 4.13l11-33.64c-7.9-3.11-18.2-4.48-25.43-4.48M897.44 1383h-58.36v-49.79H803V1383h-33.29v32.62H803v74.87c0 38.08 14.78 60.76 57 60.76 15.49 0 33.33-4.8 44.65-12.69L894.34 1508c-10.65 6.17-22.32 9.28-31.6 9.28-17.84 0-23.66-11-23.66-27.47v-74.16h58.36zm-533.59 164.16v-103c0-38.79-24.72-64.89-64.57-65.24-20.95-.35-42.56 6.17-57.69 29.2-11.32-18.2-29.16-29.2-54.24-29.2-17.53 0-34.66 5.15-48.07 24.37V1383h-35.72v164.12h36v-91c0-28.49 15.8-43.63 40.2-43.63 23.7 0 35.69 15.45 35.69 43.27v91.34h36.08v-91c0-28.49 16.47-43.63 40.16-43.63 24.37 0 36 15.45 36 43.27v91.34z" fill="#231f20"/><path d="M1980.94 1001.22v-24h-6.25l-7.23 16.47-7.19-16.47H1954v24h4.44v-18.08l6.76 15.6h4.6l6.76-15.64v18.12h4.4zm-39.65 0v-19.89h8v-4.05h-20.44v4.05h8v19.89h4.4z" fill="#f79410"/><path d="M1270.57 1104.15H729.71v-972h540.87z" fill="#ff5f00"/><path d="M764 618.17c0-197.17 92.32-372.81 236.08-486A615.46 615.46 0 00618.09 0C276.72 0 0 276.76 0 618.17s276.72 618.17 618.09 618.17a615.46 615.46 0 00382-132.17C856.34 991 764 815.35 764 618.17" fill="#eb001b"/><path d="M2000.25 618.17c0 341.41-276.72 618.17-618.09 618.17a615.65 615.65 0 01-382.05-132.17c143.8-113.19 236.12-288.82 236.12-486s-92.32-372.81-236.12-486A615.65 615.65 0 011382.15 0c341.37 0 618.09 276.76 618.09 618.17" fill="#f79e1b"/></symbol><symbol id="qiwi" viewBox="0 0 394.217 144.076"><path d="M96.441 126.323c12.28 0 25.603 4.209 40.35 17.276 1.477 1.309 3.443-.318 2.155-1.943-14.492-18.297-27.896-21.783-41.264-24.728-16.35-3.603-24.76-12.803-30.622-22.904-1.167-2.01-1.69-1.656-1.794.927-.129 3.16.09 7.34.796 11.454-.66.031-1.323.022-1.99.022-23.392 0-42.355-18.963-42.355-42.354 0-23.393 18.963-42.356 42.355-42.356 23.392 0 42.356 18.963 42.356 42.356a42.9 42.9 0 01-.268 4.923c-3.095-.557-9.182-.62-13.452-.25-1.607.138-1.382.886-.167 1.106 14.001 2.53 23.621 11.207 25.82 26.952.05.363.524.47.712.157 5.761-9.613 9.07-20.865 9.07-32.888C128.144 28.687 99.459 0 64.073 0 28.686 0 0 28.687 0 64.073c0 35.386 28.686 64.075 64.072 64.075 9.388 0 18.701-1.825 32.37-1.825zm4.77-23.264c2.85 2.41 3.718 5.276 2.21 7.297-.839 1.108-2.197 1.719-3.827 1.719-1.6 0-3.229-.592-4.36-1.579-2.592-2.266-3.353-5.937-1.66-8.024.66-.816 1.735-1.266 3.023-1.266 1.564 0 3.203.66 4.613 1.853zm13.153-6.12c.418 2.808-.47 3.97-1.36 3.97-.972 0-2.192-1.138-3.632-3.384-1.42-2.217-1.94-4.761-1.236-6.046.465-.851 1.438-1.22 2.666-.756 2.378.899 3.311 4.538 3.562 6.216zm88.816-14.674l-7.387-8.884c-.773-.932-.11-2.344 1.1-2.344h15.453a21.828 21.828 0 001.152-6.961c0-11.13-8.284-20.725-19.653-20.725-11.37 0-19.653 9.596-19.653 20.725 0 11.13 8.284 20.59 19.653 20.59 3.445 0 6.601-.88 9.335-2.4zm33.422 15.015c.803.888.144 2.317-1.065 2.317h-16.864a2.31 2.31 0 01-1.776-.833l-2.859-3.437a37 37 0 01-20.193 5.977c-20.528 0-37.228-16.7-37.228-37.228 0-20.528 16.7-37.23 37.228-37.23 20.528 0 37.228 16.702 37.228 37.23 0 7.4-2.179 14.296-5.916 20.097zm155.784-68.72h-13.762c-1.01 0-1.83.82-1.83 1.832V97.76c0 1.01.82 1.83 1.83 1.83h13.762c1.011 0 1.831-.82 1.831-1.83V30.392c0-1.012-.82-1.832-1.83-1.832zm-23.158 0h-15.399c-.805 0-1.516.521-1.75 1.287l-12.186 39.812-13.392-39.856a1.828 1.828 0 00-1.736-1.243H314.02c-.788 0-1.488.5-1.738 1.243L298.89 69.659l-12.185-39.812a1.827 1.827 0 00-1.75-1.287h-15.4c-.587 0-1.14.281-1.485.755a1.803 1.803 0 00-.25 1.636l22.616 67.405a1.83 1.83 0 001.737 1.241h12.221c.788 0 1.487-.5 1.738-1.24l13.26-39.38 13.26 39.38c.25.74.95 1.24 1.737 1.24h12.221c.788 0 1.488-.5 1.738-1.241l22.616-67.405a1.803 1.803 0 00-.25-1.636 1.837 1.837 0 00-1.486-.755zM261.99 30.392V97.76c0 1.01-.82 1.83-1.83 1.83h-13.763c-1.01 0-1.83-.82-1.83-1.83V30.392c0-1.012.82-1.832 1.83-1.832h13.763c1.01 0 1.83.82 1.83 1.832" fill="#f57d14"/></symbol><symbol id="visa" viewBox="0 0 209.172 72.542"><path d="M195.144 3.578h-13.386c-4.149 0-7.248 1.21-9.079 5.646l-25.723 62.331h18.197s2.964-8.382 3.637-10.212c1.993 0 19.672.026 22.193.026.521 2.374 2.108 10.186 2.108 10.186h16.081zm-21.368 43.84c1.435-3.908 6.902-19.011 6.902-19.011-.091.187 1.42-3.933 2.313-6.493l1.171 5.866s3.313 16.237 4.013 19.638zm-25.595 1.883c-.131 14.127-11.967 23.241-30.178 23.241-7.77-.083-15.25-1.729-19.305-3.621l2.437-15.231 2.232 1.085c5.692 2.538 9.38 3.568 16.314 3.568 4.98 0 10.316-2.088 10.363-6.639.029-2.98-2.234-5.108-8.976-8.436-6.582-3.262-15.292-8.717-15.182-18.484.097-13.222 12.16-22.445 29.287-22.445 6.713 0 12.091 1.476 15.521 2.854l-2.344 14.744-1.565-.787c-3.188-1.373-7.293-2.698-12.968-2.602-6.78 0-9.932 3.021-9.932 5.849-.034 3.185 3.672 5.282 9.735 8.431 10.005 4.846 14.626 10.739 14.561 18.473zM74.353 3.564l-27.286 67.89-18.334.027-15.518-60.594c11.154 7.639 20.657 23.636 24.004 32.063l1.807 7.006L55.997 3.574zm7.004-.054h17.336L87.85 71.528H70.525z" fill="#1d44d6"/><path d="M0 1.092L.18 0h21.748c2.933.118 5.295 1.108 6.11 4.433l9.023 32.647C32.414 24.468 16.922 5.441 0 1.092z" fill="#f68f1f"/></symbol><symbol id="yandex" viewBox="0 0 228 88"><path d="M22.966 31.848h-7.524c-7.39 0-13.661 5.628-13.661 16.55 0 6.555 3.037 11.388 8.448 13.77L.133 80.439c-.331.598 0 1.059.526 1.059h4.685c.396 0 .66-.132.792-.461l9.174-17.942h3.3v17.942c0 .196.199.461.46.461h4.095c.395 0 .527-.198.527-.527V32.512c0-.465-.263-.664-.726-.664M18.61 58.857h-2.772c-4.355 0-8.58-3.176-8.58-11.12 0-8.277 3.962-11.653 7.986-11.653h3.366z" fill="red"/><path d="M47.77 48.308H43.68c-.33 0-.528.265-.528.46v12.646h-7.59V48.768c0-.33-.131-.46-.46-.46h-4.093c-.33 0-.526.197-.526.46v32.176c0 .33.132.528.459.528h4.16c.264 0 .46-.198.46-.528V65.585h7.59v15.358c0 .33.199.528.528.528h4.092c.329 0 .46-.264.46-.528V48.768a.449.449 0 00-.46-.46M141.19 79.354l-.526-2.251c-.063-.198-.131-.263-.327-.263-.332 0-2.114.725-4.688.725-5.015 0-7.458-4.829-7.458-12.509 0-6.754 2.048-13.439 5.479-13.439.924 0 2.046.263 3.825 1.92.2.2.33.266.528.266s.396-.135.595-.464l1.782-2.912c.132-.2.199-.4.199-.6 0-.262-.264-.462-.661-.66-2.707-1.389-4.552-1.653-6.137-1.653-6.204 0-11.023 7.412-11.023 18.997 0 9.996 4.62 15.756 11.219 15.756 2.775 0 5.743-1.322 6.933-2.185a.666.666 0 00.26-.728M112.51 63.266l7.918-14.497c.134-.198.066-.461-.198-.461h-3.894c-1.12 0-1.517.396-1.911 1.257l-5.942 12.379c-.33.729-.658 1.19-.988 1.391V48.769c0-.263-.133-.461-.397-.461h-4.29c-.197 0-.395.198-.395.461v32.239c0 .2.13.463.396.463h4.289c.264 0 .397-.198.397-.463V64.394c.197.132.33.329.462.596l7.522 15.49c.394.793.988.991 1.849.991h4.225c.26 0 .327-.263.195-.463zM74.698 77.302h-.793c-.99 0-1.253-.397-1.253-1.192V48.769c0-.331-.132-.463-.397-.463h-13.2c-.33 0-.526.199-.526.463v2.385c0 8.009-.463 18.335-4.686 26.148H52.39c-.397 0-.528.198-.528.529v9.664c0 .334.264.463.462.463h3.167c.725 0 .988-.528.988-.992v-5.494h14.125v6.023a.45.45 0 00.459.463h3.368c.395 0 .79-.331.79-.992v-9.135c.002-.331-.196-.529-.523-.529m-7.13 0H58c3.366-5.759 4.686-12.248 5.148-20.189.132-1.723.199-3.51.199-4.637h4.223v24.826zM88.159 47.511c-7.125 0-10.294 9.004-10.294 18.802 0 9.996 4.486 15.953 11.087 15.953 3.233 0 6.07-1.256 7.52-2.186.265-.131.33-.332.265-.594l-.527-2.251c-.067-.265-.2-.396-.53-.396-.263 0-2.176.725-4.884.725-5.081 0-7.456-4.433-7.456-10.26v-1.566s2.574.31 4.092.31h9.636v-2.781c0-10.259-3.631-15.756-8.91-15.756m-.725 14.367c-1.518 0-3.894.265-3.894.265s0-.993.132-2.054c.593-5.625 1.979-8.473 4.29-8.473 2.112 0 3.43 2.911 3.76 8.009.066 1.06.066 2.253.066 2.253z"/><g><path d="M164.035 41.766c0-4.728.396-7.729 10.187-15.037C182.329 20.678 208.312 0 208.312 0v34.517h19.758v49.679h-57.862c-3.395 0-6.173-2.778-6.173-6.172z" fill="#fc0"/><path fill="#d6ab05" d="M172 79.252l45.907-14.936V34.518h-9.596v20.001z"/><path d="M191.718 33.483c2.123-2.529 5.224-3.423 6.926-1.994 1.703 1.429 1.362 4.639-.761 7.168-2.122 2.53-5.224 3.421-6.927 1.993-1.7-1.428-1.361-4.637.762-7.167"/></g></symbol></svg>