<svg xmlns="http://www.w3.org/2000/svg" viewBox="0 0 209.172 72.542"><path d="M195.144 3.578h-13.386c-4.149 0-7.248 1.21-9.079 5.646l-25.723 62.331h18.197s2.964-8.382 3.637-10.212c1.993 0 19.672.026 22.193.026.521 2.374 2.108 10.186 2.108 10.186h16.081zm-21.368 43.84c1.435-3.908 6.902-19.011 6.902-19.011-.091.187 1.42-3.933 2.313-6.493l1.171 5.866s3.313 16.237 4.013 19.638zm-25.595 1.883c-.131 14.127-11.967 23.241-30.178 23.241-7.77-.083-15.25-1.729-19.305-3.621l2.437-15.231 2.232 1.085c5.692 2.538 9.38 3.568 16.314 3.568 4.98 0 10.316-2.088 10.363-6.639.029-2.98-2.234-5.108-8.976-8.436-6.582-3.262-15.292-8.717-15.182-18.484.097-13.222 12.16-22.445 29.287-22.445 6.713 0 12.091 1.476 15.521 2.854l-2.344 14.744-1.565-.787c-3.188-1.373-7.293-2.698-12.968-2.602-6.78 0-9.932 3.021-9.932 5.849-.034 3.185 3.672 5.282 9.735 8.431 10.005 4.846 14.626 10.739 14.561 18.473zM74.353 3.564l-27.286 67.89-18.334.027-15.518-60.594c11.154 7.639 20.657 23.636 24.004 32.063l1.807 7.006L55.997 3.574zm7.004-.054h17.336L87.85 71.528H70.525z" fill="#1d44d6"/><path d="M0 1.092L.18 0h21.748c2.933.118 5.295 1.108 6.11 4.433l9.023 32.647C32.414 24.468 16.922 5.441 0 1.092z" fill="#f68f1f"/></svg>