<svg xmlns="http://www.w3.org/2000/svg" viewBox="0 0 228 88"><path d="M22.966 31.848h-7.524c-7.39 0-13.661 5.628-13.661 16.55 0 6.555 3.037 11.388 8.448 13.77L.133 80.439c-.331.598 0 1.059.526 1.059h4.685c.396 0 .66-.132.792-.461l9.174-17.942h3.3v17.942c0 .196.199.461.46.461h4.095c.395 0 .527-.198.527-.527V32.512c0-.465-.263-.664-.726-.664M18.61 58.857h-2.772c-4.355 0-8.58-3.176-8.58-11.12 0-8.277 3.962-11.653 7.986-11.653h3.366z" fill="red"/><path d="M47.77 48.308h-4.09c-.33 0-.528.265-.528.46v12.646h-7.59V48.768c0-.33-.131-.46-.46-.46h-4.093c-.33 0-.526.197-.526.46v32.176c0 .33.132.528.459.528h4.16c.264 0 .46-.198.46-.528V65.585h7.59v15.358c0 .33.199.528.528.528h4.092c.329 0 .46-.264.46-.528V48.768a.449.449 0 00-.46-.46m93.418 31.046l-.526-2.251c-.063-.198-.131-.263-.327-.263-.332 0-2.114.725-4.688.725-5.015 0-7.458-4.829-7.458-12.509 0-6.754 2.048-13.439 5.479-13.439.924 0 2.046.263 3.825 1.92.2.2.33.266.528.266s.396-.135.595-.464l1.782-2.912c.132-.2.199-.4.199-.6 0-.262-.264-.462-.661-.66-2.707-1.389-4.552-1.653-6.137-1.653-6.204 0-11.023 7.412-11.023 18.997 0 9.996 4.62 15.756 11.219 15.756 2.775 0 5.743-1.322 6.933-2.185a.666.666 0 00.26-.728m-28.68-16.088l7.918-14.497c.134-.198.066-.461-.198-.461h-3.894c-1.12 0-1.517.396-1.911 1.257l-5.942 12.379c-.33.729-.658 1.19-.988 1.391V48.769c0-.263-.133-.461-.397-.461h-4.29c-.197 0-.395.198-.395.461v32.239c0 .2.13.463.396.463h4.289c.264 0 .397-.198.397-.463V64.394c.197.132.33.329.462.596l7.522 15.49c.394.793.988.991 1.849.991h4.225c.26 0 .327-.263.195-.463zM74.698 77.302h-.793c-.99 0-1.253-.397-1.253-1.192V48.769c0-.331-.132-.463-.397-.463h-13.2c-.33 0-.526.199-.526.463v2.385c0 8.009-.463 18.335-4.686 26.148H52.39c-.397 0-.528.198-.528.529v9.664c0 .334.264.463.462.463h3.167c.725 0 .988-.528.988-.992v-5.494h14.125v6.023a.45.45 0 00.459.463h3.368c.395 0 .79-.331.79-.992v-9.135c.002-.331-.196-.529-.523-.529m-7.13 0H58c3.366-5.759 4.686-12.248 5.148-20.189.132-1.723.199-3.51.199-4.637h4.223v24.826zm20.591-29.791c-7.125 0-10.294 9.004-10.294 18.802 0 9.996 4.486 15.953 11.087 15.953 3.233 0 6.07-1.256 7.52-2.186.265-.131.33-.332.265-.594l-.527-2.251c-.067-.265-.2-.396-.53-.396-.263 0-2.176.725-4.884.725-5.081 0-7.456-4.433-7.456-10.26v-1.566s2.574.31 4.092.31h9.636v-2.781c0-10.259-3.631-15.756-8.91-15.756m-.725 14.367c-1.518 0-3.894.265-3.894.265s0-.993.132-2.054c.593-5.625 1.979-8.473 4.29-8.473 2.112 0 3.43 2.911 3.76 8.009.066 1.06.066 2.253.066 2.253z"/><path d="M164.035 41.766c0-4.728.396-7.729 10.187-15.037C182.329 20.678 208.312 0 208.312 0v34.517h19.758v49.679h-57.862c-3.395 0-6.173-2.778-6.173-6.172z" fill="#fc0"/><path fill="#d6ab05" d="M172 79.252l45.907-14.936V34.518h-9.596v20.001z"/><path d="M191.718 33.483c2.123-2.529 5.224-3.423 6.926-1.994 1.703 1.429 1.362 4.639-.761 7.168-2.122 2.53-5.224 3.421-6.927 1.993-1.7-1.428-1.361-4.637.762-7.167"/></svg>