<?xml version="1.0" encoding="UTF-8" standalone="no"?>
<svg xmlns:dc="http://purl.org/dc/elements/1.1/" xmlns:cc="http://creativecommons.org/ns#" xmlns:rdf="http://www.w3.org/1999/02/22-rdf-syntax-ns#" xmlns:svg="http://www.w3.org/2000/svg" xmlns="http://www.w3.org/2000/svg" xmlns:sodipodi="http://sodipodi.sourceforge.net/DTD/sodipodi-0.dtd" xmlns:inkscape="http://www.inkscape.org/namespaces/inkscape" version="1.1" id="Layer_1" x="0px" y="0px" viewBox="0 0 129.451 132.543" enable-background="new 0 0 300 160" xml:space="preserve" inkscape:version="0.92.2 (5c3e80d, 2017-08-06)">
  <sodipodi:namedview pagecolor="#ffffff" bordercolor="#666666" borderopacity="1" objecttolerance="10" gridtolerance="10" guidetolerance="10" inkscape:pageopacity="0" inkscape:pageshadow="2" inkscape:window-width="643" inkscape:window-height="480" id="namedview5256" showgrid="false" inkscape:zoom="1.475" inkscape:cx="64.793" inkscape:cy="65.543" inkscape:window-x="1090" inkscape:window-y="114" inkscape:window-maximized="0" inkscape:current-layer="Layer_1"/>
  <g id="g5253" transform="translate(-85.207,-13)">
    <g id="g5251">
      <path d="m 162.339,106.583 c 0,-1.136 -0.459,-1.987 -1.373,-2.559 -0.914,-0.567 -2.201,-0.852 -3.857,-0.852 h -4.967 v 12.378 h 5.767 c 1.534,0 2.731,-0.297 3.587,-0.893 0.856,-0.595 1.285,-1.472 1.285,-2.629 0,-0.673 -0.219,-1.27 -0.657,-1.792 -0.438,-0.521 -1.049,-0.879 -1.83,-1.07 0.65,-0.235 1.154,-0.581 1.511,-1.034 0.355,-0.454 0.534,-0.97 0.534,-1.549 z m -7.906,-1.638 h 2.676 c 0.967,0 1.699,0.149 2.195,0.445 0.496,0.294 0.745,0.734 0.745,1.318 0,0.568 -0.248,0.993 -0.739,1.271 -0.491,0.282 -1.222,0.421 -2.192,0.421 h -2.685 z m 6.045,7.025 c 0,0.597 -0.217,1.051 -0.65,1.369 -0.434,0.317 -1.073,0.475 -1.919,0.475 h -3.476 v -3.686 h 3.476 c 0.846,0 1.485,0.163 1.919,0.482 0.433,0.321 0.65,0.775 0.65,1.36 z m 7.726,-5.978 c 0.517,-0.85 1.375,-1.274 2.575,-1.274 0.829,0 1.516,0.264 2.057,0.795 0.545,0.53 0.814,1.173 0.814,1.927 h 2.07 l 0.022,-0.067 c 0.032,-1.243 -0.419,-2.292 -1.354,-3.146 -0.933,-0.854 -2.136,-1.282 -3.609,-1.282 -1.822,0 -3.22,0.59 -4.191,1.768 -0.973,1.18 -1.459,2.65 -1.459,4.41 v 0.482 c 0,1.775 0.485,3.252 1.452,4.427 0.97,1.174 2.37,1.762 4.198,1.762 1.333,0 2.501,-0.415 3.507,-1.246 1.002,-0.832 1.484,-1.781 1.446,-2.85 l -0.022,-0.068 h -2.06 c 0,0.67 -0.287,1.237 -0.864,1.698 -0.578,0.463 -1.246,0.691 -2.007,0.691 -1.209,0 -2.07,-0.42 -2.581,-1.261 -0.511,-0.842 -0.766,-1.896 -0.766,-3.16 v -0.479 c 0.001,-1.237 0.256,-2.278 0.772,-3.127 z M 117.383,88.694 h 64.88 c 2.987,0 5.407,-2.421 5.407,-5.406 V 31.023 c 0,-2.987 -2.42,-5.407 -5.407,-5.407 L 150.272,13 117.382,25.616 c -2.988,0 -5.407,2.42 -5.407,5.407 v 52.265 c 0.001,2.985 2.42,5.406 5.408,5.406 z m 32.44,-64.881 29.458,21.611 h -58.919 z m -24.748,27.222 -1.178,-2.054 h 14.14 l -1.178,2.054 h -2.356 v 23.288 h -7.07 V 51.035 Z m 51.724,24.889 v 1.904 H 122.847 V 75.924 Z M 143.93,51.035 142.753,48.981 h 14.14 l -1.178,2.054 h -2.358 v 23.288 h -7.07 V 51.035 Z m 18.855,0 -1.18,-2.054 h 14.143 l -1.18,2.054 h -2.357 v 23.288 h -7.069 V 51.035 Z m -43.601,28.546 h 61.277 v 1.905 h -61.277 z m 90.382,21.567 c 1.061,0 1.906,-0.277 2.534,-0.834 0.629,-0.558 0.926,-1.277 0.895,-2.164 l -0.023,-0.068 h -1.755 c 0,0.497 -0.136,0.901 -0.406,1.218 -0.273,0.316 -0.687,0.476 -1.244,0.476 -0.573,0 -0.992,-0.156 -1.257,-0.468 -0.265,-0.313 -0.395,-0.721 -0.395,-1.226 h -1.757 l -0.022,0.068 c -0.039,0.887 0.255,1.606 0.884,2.164 0.627,0.557 1.476,0.834 2.546,0.834 z M 149.823,32.053 c -2.604,0 -4.714,2.106 -4.714,4.707 0,2.601 2.11,4.709 4.714,4.709 2.603,0 4.713,-2.108 4.713,-4.709 0,-2.601 -2.11,-4.707 -4.713,-4.707 z m -58.151,73.432 h -4.174 v -4.818 h 8.091 V 98.896 H 85.207 v 16.655 h 6.465 c 1.798,0 3.202,-0.468 4.209,-1.406 1.007,-0.938 1.51,-2.161 1.51,-3.672 0,-1.503 -0.502,-2.71 -1.505,-3.621 -1.002,-0.913 -2.408,-1.367 -4.214,-1.367 z m 2.57,7.329 c -0.574,0.643 -1.43,0.964 -2.57,0.964 h -4.174 v -6.521 h 4.174 c 1.147,0 2.006,0.304 2.576,0.913 0.569,0.609 0.854,1.366 0.854,2.272 10e-4,0.94 -0.287,1.728 -0.86,2.372 z m 81.199,15.362 c -1.728,0 -3.096,0.593 -4.105,1.778 -1.005,1.187 -1.508,2.695 -1.508,4.526 v 0.25 c 0,1.839 0.504,3.347 1.516,4.526 1.011,1.177 2.386,1.768 4.121,1.768 1.736,0 3.107,-0.589 4.116,-1.764 1.006,-1.173 1.512,-2.684 1.512,-4.53 v -0.25 c 0,-1.839 -0.507,-3.348 -1.518,-4.53 -1.011,-1.183 -2.389,-1.774 -4.134,-1.774 z m 3.361,6.551 c 0,1.31 -0.283,2.389 -0.849,3.245 -0.565,0.853 -1.395,1.278 -2.488,1.278 -1.106,0 -1.944,-0.426 -2.505,-1.278 -0.563,-0.856 -0.844,-1.936 -0.844,-3.245 v -0.252 c 0,-1.296 0.28,-2.374 0.844,-3.233 0.561,-0.862 1.388,-1.291 2.481,-1.291 1.103,0 1.937,0.429 2.507,1.291 0.57,0.859 0.854,1.938 0.854,3.233 z m -13.813,-0.329 c 0.65,-0.235 1.156,-0.581 1.512,-1.035 0.357,-0.453 0.535,-0.97 0.535,-1.548 0,-1.138 -0.458,-1.989 -1.372,-2.56 -0.915,-0.566 -2.201,-0.852 -3.86,-0.852 h -4.965 v 12.378 h 5.767 c 1.535,0 2.73,-0.298 3.587,-0.893 0.857,-0.595 1.285,-1.471 1.285,-2.63 0,-0.671 -0.219,-1.269 -0.657,-1.791 -0.438,-0.519 -1.049,-0.876 -1.832,-1.069 z m -5.859,-4.22 h 2.674 c 0.97,0 1.701,0.148 2.196,0.444 0.497,0.295 0.746,0.735 0.746,1.317 0,0.568 -0.247,0.993 -0.739,1.272 -0.491,0.281 -1.223,0.422 -2.192,0.422 h -2.685 z m 5.394,8.391 c -0.435,0.317 -1.073,0.476 -1.919,0.476 h -3.476 v -3.686 h 3.476 c 0.846,0 1.484,0.162 1.919,0.482 0.435,0.32 0.651,0.774 0.651,1.36 10e-4,0.596 -0.216,1.052 -0.651,1.368 z m -15.417,-10.393 c -1.456,0 -2.719,0.585 -3.785,1.756 -1.064,1.172 -1.598,2.637 -1.598,4.4 v 0.503 c 0,1.83 0.518,3.319 1.552,4.468 1.035,1.147 2.429,1.722 4.181,1.722 1.045,0 1.938,-0.147 2.673,-0.438 0.737,-0.292 1.328,-0.658 1.78,-1.093 l -0.897,-1.468 c -0.426,0.383 -0.93,0.681 -1.517,0.897 -0.584,0.218 -1.266,0.327 -2.039,0.327 -1.063,0 -1.889,-0.381 -2.478,-1.146 -0.589,-0.765 -0.896,-1.74 -0.918,-2.928 l 0.034,-0.056 h 8.162 v -1.408 c 0,-1.676 -0.435,-3.02 -1.303,-4.026 -0.866,-1.007 -2.149,-1.51 -3.847,-1.51 z m 2.862,5.17 h -5.804 l -0.022,-0.057 c 0.124,-0.956 0.458,-1.752 1,-2.388 0.544,-0.635 1.199,-0.951 1.965,-0.951 0.946,0 1.659,0.296 2.14,0.888 0.479,0.594 0.722,1.331 0.722,2.212 v 0.296 z m 37.298,-17.795 0.034,-0.057 -5.325,-6.395 4.93,-5.868 -0.035,-0.059 h -2.687 l -4.149,5.229 h -1.325 v -5.229 h -2.292 v 12.378 h 2.292 v -5.25 h 1.499 l 4.245,5.25 h 2.813 z m 4.011,-3.568 -0.071,-0.024 v -8.786 h -2.279 v 12.378 h 2.279 l 5.559,-8.809 0.067,0.024 v 8.784 h 2.292 v -12.378 h -2.292 z m 19.089,-8.81 -5.558,8.811 -0.069,-0.024 v -8.786 h -2.277 v 12.378 h 2.277 l 5.558,-8.809 0.069,0.024 v 8.784 h 2.291 v -12.378 z m -91.384,12.378 h 2.29 v -12.378 h -2.29 v 5.354 h -5.604 v -5.354 h -2.292 v 12.378 h 2.292 v -5.25 h 5.604 z m 28.345,-6.051 v -0.252 c 0,-1.837 -0.504,-3.348 -1.517,-4.53 -1.013,-1.182 -2.389,-1.774 -4.134,-1.774 -1.728,0 -3.097,0.593 -4.104,1.781 -1.008,1.185 -1.511,2.692 -1.511,4.523 v 0.252 c 0,1.837 0.505,3.346 1.518,4.524 1.011,1.178 2.385,1.768 4.121,1.768 1.735,0 3.109,-0.588 4.115,-1.762 1.009,-1.175 1.512,-2.684 1.512,-4.53 z m -2.289,-0.006 c 0,1.31 -0.284,2.391 -0.849,3.245 -0.566,0.853 -1.396,1.278 -2.489,1.278 -1.108,0 -1.942,-0.426 -2.506,-1.278 -0.562,-0.854 -0.841,-1.936 -0.841,-3.245 v -0.251 c 0,-1.295 0.279,-2.375 0.841,-3.233 0.563,-0.863 1.39,-1.292 2.482,-1.292 1.101,0 1.938,0.429 2.506,1.292 0.57,0.858 0.855,1.938 0.855,3.233 v 0.251 z m -24.057,18.682 c -1.457,0 -2.719,0.585 -3.784,1.756 -1.067,1.172 -1.599,2.637 -1.599,4.4 v 0.503 c 0,1.83 0.518,3.319 1.551,4.468 1.034,1.147 2.429,1.722 4.18,1.722 1.047,0 1.938,-0.147 2.675,-0.438 0.736,-0.292 1.329,-0.658 1.778,-1.093 l -0.895,-1.468 c -0.425,0.383 -0.933,0.681 -1.517,0.897 -0.586,0.218 -1.265,0.327 -2.042,0.327 -1.062,0 -1.886,-0.381 -2.476,-1.146 -0.59,-0.765 -0.895,-1.74 -0.919,-2.928 l 0.036,-0.056 h 8.162 v -1.408 c 0,-1.676 -0.435,-3.02 -1.302,-4.026 -0.868,-1.007 -2.149,-1.51 -3.848,-1.51 z m 2.861,5.17 h -5.801 l -0.022,-0.057 c 0.123,-0.956 0.457,-1.752 1,-2.388 0.542,-0.635 1.197,-0.951 1.964,-0.951 0.945,0 1.66,0.296 2.141,0.888 0.48,0.594 0.72,1.331 0.72,2.212 v 0.296 z m -18.369,-19.649 c 0.007,0.29 0.032,0.579 0.076,0.865 0.042,0.285 0.102,0.615 0.179,0.988 h 2.36 c -0.124,-0.396 -0.209,-0.801 -0.255,-1.213 -0.047,-0.412 -0.07,-0.838 -0.07,-1.281 v -5.959 c 0,-1.343 -0.434,-2.369 -1.303,-3.084 -0.868,-0.712 -2.015,-1.07 -3.441,-1.07 -1.44,0 -2.619,0.376 -3.528,1.123 -0.91,0.746 -1.342,1.571 -1.297,2.472 l 0.025,0.066 h 2.186 c 0,-0.518 0.23,-0.962 0.691,-1.332 0.462,-0.37 1.06,-0.555 1.796,-0.555 0.821,0 1.457,0.212 1.907,0.634 0.449,0.424 0.674,0.998 0.674,1.723 v 1.225 h -2.489 c -1.667,0 -2.987,0.333 -3.958,1.001 -0.974,0.667 -1.459,1.592 -1.459,2.775 0,1.158 0.343,2.067 1.028,2.728 0.687,0.658 1.684,0.989 2.994,0.989 0.792,0 1.53,-0.201 2.216,-0.601 0.686,-0.401 1.241,-0.899 1.668,-1.494 z m -5.094,-0.283 c -0.349,-0.318 -0.523,-0.753 -0.523,-1.301 0,-0.616 0.278,-1.152 0.833,-1.609 0.553,-0.457 1.292,-0.685 2.214,-0.685 h 2.57 v 2.01 c -0.202,0.537 -0.636,1.019 -1.302,1.435 -0.667,0.419 -1.416,0.629 -2.244,0.629 -0.684,0 -1.198,-0.161 -1.548,-0.479 z m 34.112,14.762 c -0.812,0 -1.526,0.156 -2.138,0.469 -0.612,0.312 -1.125,0.767 -1.535,1.361 l -0.36,-1.602 h -1.757 v 17.139 h 2.292 v -6.053 c 0.41,0.51 0.908,0.895 1.494,1.149 0.584,0.256 1.266,0.385 2.04,0.385 1.527,0 2.724,-0.549 3.592,-1.644 0.869,-1.093 1.302,-2.533 1.302,-4.317 v -0.241 c 0,-1.998 -0.432,-3.605 -1.296,-4.822 -0.863,-1.216 -2.076,-1.824 -3.634,-1.824 z m 2.641,6.882 c 0,1.233 -0.28,2.239 -0.838,3.021 -0.559,0.779 -1.38,1.172 -2.465,1.172 -0.673,0 -1.244,-0.142 -1.708,-0.43 -0.466,-0.286 -0.841,-0.684 -1.128,-1.193 v -5.976 c 0.287,-0.511 0.662,-0.913 1.128,-1.206 0.464,-0.291 1.025,-0.439 1.685,-0.439 1.094,0 1.921,0.452 2.482,1.355 0.562,0.9 0.844,2.053 0.844,3.457 z m -1.548,-19.507 0.036,-0.057 -5.324,-6.395 4.928,-5.868 -0.034,-0.059 h -2.686 l -4.152,5.229 h -1.325 v -5.229 h -2.29 v 12.378 h 2.29 v -5.25 h 1.5 l 4.246,5.25 h 2.811 z m -33.006,25.231 h 2.289 v -10.604 h 5.616 v 10.604 h 2.29 v -12.378 h -10.195 z m 89.743,-12.378 h -8.219 l -0.187,4.651 c -0.116,1.646 -0.345,2.867 -0.686,3.663 -0.341,0.795 -0.833,1.56 -1.478,2.292 h -0.987 l 0.219,5.409 h 2.07 v -3.638 h 8.65 v 3.638 h 2.07 l 0.222,-5.409 h -1.676 v -10.606 z m -2.289,10.607 h -5.641 c 0.497,-0.663 0.902,-1.479 1.215,-2.444 0.315,-0.97 0.515,-2.138 0.602,-3.509 l 0.103,-2.651 h 3.722 v 8.604 z" id="path5249" inkscape:connector-curvature="0" style="fill:#737e8b" />
    </g>
  </g>
</svg>
