<?xml version="1.0" encoding="UTF-8" standalone="no"?>
<svg xmlns:dc="http://purl.org/dc/elements/1.1/" xmlns:cc="http://creativecommons.org/ns#" xmlns:rdf="http://www.w3.org/1999/02/22-rdf-syntax-ns#" xmlns:svg="http://www.w3.org/2000/svg" xmlns="http://www.w3.org/2000/svg" xmlns:sodipodi="http://sodipodi.sourceforge.net/DTD/sodipodi-0.dtd" xmlns:inkscape="http://www.inkscape.org/namespaces/inkscape" version="1.1" id="Layer_1" x="0px" y="0px" viewBox="0 0 222.34242 93.487999" enable-background="new 0 0 300 160" xml:space="preserve" sodipodi:docname="contact.svg" inkscape:version="0.92.2 (5c3e80d, 2017-08-06)">
  <sodipodi:namedview pagecolor="#ffffff" bordercolor="#666666" borderopacity="1" objecttolerance="10" gridtolerance="10" guidetolerance="10" inkscape:pageopacity="0" inkscape:pageshadow="2" inkscape:window-width="643" inkscape:window-height="480" id="namedview5086" showgrid="false" inkscape:zoom="1.475" inkscape:cx="111.01642" inkscape:cy="47.738" inkscape:window-x="1020" inkscape:window-y="184" inkscape:window-maximized="0" inkscape:current-layer="Layer_1"/>
  <g id="Контакт" transform="translate(-38.98358,-34.25)">
    <path d="m 150.046,104.571 -7.742,16.761 c -15.772,-0.062 -27.995,-0.152 -30.882,-0.277 -9.753,-0.431 -5.514,-8.166 -5.514,-8.166 l 56.393,-78.639 -34.767,70.321 z m 13.015,0 h 84.474 l -10.178,16.905 c 0,0 -49.543,0.004 -86.642,-0.114 z" id="path5074" inkscape:connector-curvature="0" style="clip-rule:evenodd;fill:#039dff;fill-rule:evenodd" />
    <path d="m 201.9,49.099 -60.632,78.639 39.006,-69.875 h -25.251 l 7.164,-16.836 c 17.141,0.029 30.744,0.065 34.2,0.109 9.761,0.121 5.513,7.963 5.513,7.963 z m -60.74,8.764 H 57.732 L 67.907,40.934 c 0,0 47.719,0.025 85.184,0.079 z" id="path5076" inkscape:connector-curvature="0" style="clip-rule:evenodd;fill:#039dff;fill-rule:evenodd"/>
    <g id="g5082">
      <g id="g5080">
        <path d="m 50.706,90.106 c -4.148,0 -5.496,-3.826 -3.437,-8.791 2.077,-5.012 6.574,-8.793 10.724,-8.793 2.436,0 3.774,2.008 3.611,4.42 l 6.977,-3.233 c 0.003,-3.963 -1.589,-8.108 -7.718,-8.108 -7.804,0 -16.367,6.333 -20.256,15.715 -3.869,9.339 -0.572,15.716 7.23,15.716 6.127,0 11.215,-4.282 14.457,-8.154 l -4.313,-3.187 c -1.838,2.414 -4.84,4.415 -7.275,4.415 z M 87.05,65.601 c -7.766,0 -16.27,6.469 -20.102,15.715 -3.834,9.248 -0.689,15.716 7.076,15.716 7.765,0 16.232,-6.468 20.064,-15.716 3.834,-9.247 0.728,-15.715 -7.038,-15.715 z m 0.379,15.714 c -2.039,4.92 -6.348,8.791 -10.534,8.791 -4.188,0 -5.323,-3.871 -3.285,-8.791 2.056,-4.965 6.384,-8.793 10.57,-8.793 4.189,0 5.304,3.828 3.249,8.793 z m 26.363,1.504 -3.35,-16.717 h -6.738 l -12.59,30.383 h 6.547 l 7.286,-17.584 3.45,17.584 h 6.318 l 12.592,-30.383 h -6.585 z m 61.289,13.666 h 7.423 l 3.068,-4.376 h 10.012 l -0.556,4.376 h 7.422 l 3.037,-30.383 h -8.262 z m 21.544,-11.207 h -6.432 l 7.974,-11.434 z m 21.563,4.828 c -4.149,0 -5.495,-3.826 -3.437,-8.791 2.074,-5.012 6.572,-8.793 10.722,-8.793 2.436,0 3.776,2.008 3.613,4.42 l 6.975,-3.233 c 0.006,-3.963 -1.59,-8.108 -7.717,-8.108 -7.806,0 -16.366,6.333 -20.255,15.715 -3.87,9.339 -0.575,15.716 7.228,15.716 6.13,0 11.216,-4.282 14.457,-8.154 l -4.313,-3.187 c -1.838,2.414 -4.837,4.415 -7.273,4.415 z m 22.393,-24.004 -2.832,6.833 h 7.12 l -9.761,23.55 h 6.546 l 9.762,-23.55 h 7.079 l 2.831,-6.833 z m -92.167,6.833 h 7.118 l -9.759,23.55 h 6.546 l 9.76,-23.55 h 7.081 l 2.832,-6.833 h -20.748 z" id="path5078" inkscape:connector-curvature="0" />
      </g>
    </g>
  </g>
</svg>
