<?xml version="1.0" encoding="UTF-8" standalone="no"?>
<svg xmlns:dc="http://purl.org/dc/elements/1.1/" xmlns:cc="http://creativecommons.org/ns#" xmlns:rdf="http://www.w3.org/1999/02/22-rdf-syntax-ns#" xmlns:svg="http://www.w3.org/2000/svg" xmlns="http://www.w3.org/2000/svg" xmlns:sodipodi="http://sodipodi.sourceforge.net/DTD/sodipodi-0.dtd" xmlns:inkscape="http://www.inkscape.org/namespaces/inkscape" version="1.1" id="Layer_1" x="0px" y="0px" viewBox="0 0 224.45799 114.619" enable-background="new 0 0 300 160" xml:space="preserve" sodipodi:docname="korona.svg" inkscape:version="0.92.2 (5c3e80d, 2017-08-06)">

  <sodipodi:namedview pagecolor="#ffffff" bordercolor="#666666" borderopacity="1" objecttolerance="10" gridtolerance="10" guidetolerance="10" inkscape:pageopacity="0" inkscape:pageshadow="2" inkscape:window-width="1920" inkscape:window-height="1052" id="namedview4843" showgrid="false" inkscape:zoom="1.0429825" inkscape:cx="-8.0469899" inkscape:cy="63.954274" inkscape:window-x="1920" inkscape:window-y="0" inkscape:window-maximized="1" inkscape:current-layer="Layer_x0020_1_1_"/>

  <g id="Layer_x0020_1_1_" transform="translate(-37.663,-22.586)">
    <path d="m 47.42,22.586 h 204.944 c 5.369,0 9.757,4.387 9.757,9.757 v 95.104 c 0,5.37 -4.388,9.758 -9.757,9.758 H 47.42 c -5.37,0 -9.757,-4.388 -9.757,-9.758 V 32.344 c 0,-5.37 4.388,-9.758 9.757,-9.758 z" id="path4835" inkscape:connector-curvature="0" style="fill:#e5335b;fill-opacity:1" />
    <path d="M 94.989,113.236 H 84.685 L 75.028,98.399 h -2.333 v 14.837 H 63.038 V 76.552 h 9.657 V 91.49 c 1.351,-0.068 2.512,-0.392 3.17,-0.961 0.659,-0.569 1.898,-1.831 2.813,-3.785 0.268,-0.569 0.569,-1.25 0.915,-2.031 0.357,-0.793 0.659,-1.485 0.927,-2.065 1.004,-2.21 2.221,-3.785 3.672,-4.723 1.44,-0.938 3.338,-1.418 5.705,-1.418 0.77,0 1.406,0.011 1.92,0.034 0.502,0.022 0.904,0.044 1.184,0.044 v 7.849 h -1.999 c -0.982,0 -1.842,0.323 -2.579,0.971 -0.736,0.648 -1.473,1.932 -2.232,3.874 -0.603,1.541 -1.172,2.702 -1.697,3.495 -0.536,0.792 -1.038,1.327 -1.496,1.606 l 11.99,18.878 v -0.022 z m 26.112,-46.609 c 0.525,0.48 0.938,1.072 1.25,1.786 0.313,0.704 0.469,1.575 0.469,2.59 0,2.49 -0.893,4.432 -2.679,5.828 -1.786,1.396 -4.354,2.099 -7.691,2.099 -1.519,0 -2.97,-0.146 -4.354,-0.436 -1.384,-0.29 -2.646,-0.681 -3.795,-1.184 v -5.57 h 0.524 c 0.781,0.581 1.808,1.139 3.081,1.675 1.272,0.547 2.523,0.826 3.74,0.826 1.574,0 2.824,-0.301 3.751,-0.904 0.926,-0.603 1.384,-1.519 1.384,-2.769 0,-1.083 -0.335,-1.875 -1.016,-2.4 -0.681,-0.525 -1.898,-0.782 -3.65,-0.782 h -3.338 v -4.454 h 3.17 c 1.451,0 2.512,-0.234 3.193,-0.704 0.67,-0.468 1.005,-1.172 1.005,-2.121 0,-0.837 -0.369,-1.44 -1.105,-1.82 -0.748,-0.38 -1.73,-0.569 -2.97,-0.569 -0.692,0 -1.351,0.078 -1.987,0.223 -0.625,0.156 -1.239,0.346 -1.841,0.581 -0.559,0.223 -1.083,0.458 -1.552,0.726 -0.48,0.268 -0.837,0.458 -1.083,0.592 h -0.547 v -5.181 c 0.681,-0.301 1.786,-0.647 3.316,-1.049 1.541,-0.39 3.148,-0.591 4.833,-0.591 2.992,0 5.236,0.536 6.732,1.596 1.485,1.061 2.232,2.546 2.232,4.443 0,1.418 -0.402,2.635 -1.228,3.662 -0.815,1.028 -1.864,1.708 -3.148,2.055 v 0.246 c 0.48,0.089 1.038,0.278 1.674,0.558 0.637,0.279 1.172,0.625 1.619,1.039 z m 21.858,2.434 c 0,3.082 -0.792,5.516 -2.367,7.291 -1.585,1.774 -3.818,2.667 -6.709,2.667 -2.869,0 -5.102,-0.893 -6.698,-2.667 -1.596,-1.775 -2.389,-4.209 -2.389,-7.291 0,-3.114 0.792,-5.559 2.389,-7.323 1.597,-1.764 3.818,-2.646 6.698,-2.646 2.88,0 5.113,0.893 6.698,2.668 1.586,1.775 2.378,4.209 2.378,7.301 z m -5.604,0.033 c 0,-1.105 -0.09,-2.032 -0.257,-2.768 -0.167,-0.737 -0.414,-1.329 -0.714,-1.775 -0.324,-0.469 -0.692,-0.793 -1.105,-0.972 -0.402,-0.179 -0.871,-0.279 -1.396,-0.279 -0.491,0 -0.938,0.078 -1.34,0.235 -0.402,0.156 -0.77,0.469 -1.105,0.926 -0.313,0.435 -0.569,1.027 -0.748,1.775 -0.19,0.759 -0.279,1.708 -0.279,2.847 0,1.15 0.089,2.076 0.268,2.769 0.179,0.703 0.413,1.261 0.692,1.685 0.291,0.436 0.659,0.748 1.105,0.949 0.436,0.201 0.927,0.301 1.463,0.301 0.435,0 0.881,-0.1 1.351,-0.301 0.458,-0.201 0.815,-0.491 1.094,-0.893 0.324,-0.48 0.569,-1.049 0.737,-1.72 0.167,-0.669 0.245,-1.607 0.245,-2.791 z m 25.844,9.345 H 157.16 V 63.826 h -4.32 c -0.035,0.803 -0.057,1.44 -0.067,1.931 -0.01,0.491 -0.033,1.039 -0.056,1.653 -0.078,1.786 -0.224,3.248 -0.424,4.376 -0.213,1.127 -0.48,2.054 -0.794,2.779 -0.312,0.714 -0.636,1.284 -0.959,1.686 -0.334,0.402 -0.692,0.793 -1.072,1.139 -0.369,0.336 -0.882,0.614 -1.552,0.826 -0.67,0.212 -1.272,0.324 -1.831,0.324 -0.469,0 -0.938,-0.022 -1.396,-0.056 -0.469,-0.044 -0.737,-0.067 -0.837,-0.067 v -4.778 h 0.156 c 0.045,0 0.111,0.011 0.212,0.022 0.101,0.012 0.201,0.022 0.29,0.022 0.246,0 0.513,-0.034 0.781,-0.089 0.268,-0.067 0.491,-0.19 0.67,-0.38 0.726,-0.782 1.183,-1.819 1.385,-3.115 0.201,-1.306 0.346,-2.757 0.413,-4.365 0.045,-0.882 0.089,-1.853 0.123,-2.936 0.044,-1.083 0.078,-2.121 0.101,-3.125 h 15.227 v 18.754 z m 20.486,-9.378 c 0,3.082 -0.792,5.516 -2.367,7.291 -1.585,1.774 -3.816,2.667 -6.709,2.667 -2.868,0 -6.084,-0.893 -7.669,-2.667 -1.596,-1.775 -2.39,-4.209 -2.39,-7.291 0,-3.114 0.794,-5.559 2.39,-7.323 1.585,-1.764 4.801,-2.646 7.669,-2.646 2.88,0 5.113,0.893 6.698,2.668 1.586,1.775 2.378,4.209 2.378,7.301 z m -5.605,0.033 c 0,-1.105 -0.089,-2.032 -0.256,-2.768 -0.167,-0.737 -0.413,-1.329 -0.715,-1.775 -0.324,-0.469 -0.692,-0.793 -1.104,-0.972 -0.403,-0.179 -0.871,-0.279 -1.396,-0.279 -0.49,0 -1.92,0.078 -2.31,0.235 -0.403,0.156 -0.771,0.469 -1.106,0.926 -0.313,0.435 -0.569,1.027 -0.748,1.775 -0.189,0.759 -0.279,1.708 -0.279,2.847 0,1.15 0.09,2.076 0.269,2.769 0.179,0.703 0.413,1.272 0.692,1.685 0.29,0.436 0.659,0.748 1.105,0.949 0.435,0.201 1.908,0.301 2.433,0.301 0.437,0 0.883,-0.1 1.352,-0.301 0.457,-0.201 0.814,-0.491 1.094,-0.893 0.323,-0.48 0.569,-1.049 0.736,-1.72 0.168,-0.669 0.247,-1.607 0.247,-2.791 z m 22.942,-5.346 h -5.448 V 78.44 H 189.4 V 63.748 h -6.006 v -4.075 h 17.628 z m 11.342,9.779 v -3.93 c -0.914,0.101 -1.664,0.189 -2.232,0.268 -0.569,0.067 -1.127,0.212 -1.675,0.424 -0.469,0.179 -0.849,0.447 -1.105,0.815 -0.268,0.357 -0.39,0.848 -0.39,1.451 0,0.882 0.223,1.496 0.658,1.82 0.446,0.334 1.094,0.491 1.954,0.491 0.479,0 0.96,-0.123 1.462,-0.357 0.491,-0.235 0.949,-0.569 1.351,-0.982 z m 0,2.913 c -0.368,0.335 -0.702,0.647 -1.004,0.904 -0.303,0.268 -0.692,0.535 -1.194,0.803 -0.481,0.257 -0.96,0.458 -1.43,0.593 -0.457,0.134 -1.104,0.2 -1.943,0.2 -1.551,0 -3.672,-0.558 -4.688,-1.674 -1.028,-1.117 -1.541,-2.523 -1.541,-4.221 0,-1.395 0.269,-2.522 0.781,-3.382 0.514,-0.86 2.099,-1.541 3.08,-2.043 0.994,-0.514 2.167,-0.872 3.539,-1.072 1.373,-0.202 2.849,-0.357 4.433,-0.469 v -0.101 c 0,-1.038 -0.356,-1.752 -1.071,-2.143 -0.715,-0.391 -1.775,-0.591 -3.203,-0.591 -0.648,0 -1.396,0.123 -2.257,0.379 -0.858,0.246 -2.533,0.57 -3.359,0.96 h -0.469 v -4.544 c 0.547,-0.167 2.256,-0.368 3.46,-0.591 1.206,-0.223 2.435,-0.347 3.662,-0.347 3.026,0 5.225,0.536 6.608,1.619 1.385,1.083 2.077,2.724 2.077,4.934 V 78.45 h -5.481 v -1.987 z m 25.376,1.987 h -5.896 v -6.508 h -1.205 l -4.21,6.508 h -6.82 l 5.023,-7.345 c -1.238,-0.614 -2.154,-1.361 -2.724,-2.233 -0.569,-0.882 -0.859,-2.043 -0.859,-3.505 0,-1.039 0.19,-1.909 0.569,-2.613 0.379,-0.703 0.893,-1.306 1.54,-1.797 0.569,-0.425 1.239,-0.749 2.021,-0.95 0.782,-0.211 2.346,-0.324 3.295,-0.324 h 9.254 v 18.755 z m -5.895,-10.203 v -4.656 h -2.064 c -0.759,0 -1.352,0.19 -1.775,0.559 -0.423,0.369 -0.637,0.904 -0.637,1.619 0,0.871 0.213,1.506 0.625,1.897 0.425,0.391 1.05,0.581 1.887,0.581 z M 121.212,99.415 c 0,4.555 -1.585,8.139 -3.93,10.751 -2.344,2.612 -5.66,3.93 -9.947,3.93 -4.253,0 -7.569,-1.317 -9.924,-3.93 -2.355,-2.613 -3.953,-6.196 -3.953,-10.751 0,-4.589 1.597,-8.193 3.953,-10.796 2.355,-2.601 5.66,-3.906 9.924,-3.906 4.276,0 7.581,1.316 9.925,3.93 2.344,2.611 3.952,6.207 3.952,10.762 z m -8.73,0.057 c 0,-1.631 -0.123,-2.992 -0.391,-4.075 -0.257,-1.094 -0.614,-1.965 -1.061,-2.612 -0.48,-0.693 -1.016,-1.172 -1.63,-1.44 -0.603,-0.269 -1.294,-0.401 -2.076,-0.401 -0.726,0 -1.395,0.123 -1.976,0.356 -0.592,0.234 -1.139,0.692 -1.641,1.362 -0.458,0.637 -0.837,1.519 -1.117,2.623 -0.279,1.117 -0.424,2.513 -0.424,4.198 0,1.685 0.134,3.047 0.391,4.086 0.256,1.037 0.614,1.864 1.027,2.489 0.436,0.637 0.971,1.105 1.63,1.396 0.647,0.291 1.373,0.446 2.166,0.446 0.647,0 1.317,-0.155 1.998,-0.446 0.67,-0.29 1.206,-0.736 1.619,-1.318 0.48,-0.702 0.849,-1.551 1.105,-2.545 0.246,-0.992 0.368,-2.366 0.368,-4.107 z m 38.169,-0.425 c 0,4.422 -1.061,7.982 -3.17,10.695 -2.121,2.712 -4.734,4.063 -7.837,4.063 -1.295,0 -2.434,-0.157 -3.394,-0.469 -0.96,-0.313 -1.987,-0.793 -3.07,-1.452 v 11.511 h -9.087 v -37.8 h 9.087 v 2.88 c 1.195,-1.071 2.412,-1.964 3.651,-2.635 1.239,-0.669 2.679,-1.005 4.297,-1.005 3.025,0 5.37,1.272 7.022,3.817 1.664,2.546 2.49,6.008 2.49,10.395 z m -8.306,0.189 c 0,-2.69 -0.39,-4.655 -1.183,-5.86 -0.782,-1.218 -2.009,-1.82 -3.673,-1.82 -0.726,0 -1.451,0.123 -2.177,0.368 -0.726,0.246 -1.44,0.615 -2.133,1.106 v 13.92 c 0.436,0.2 0.905,0.347 1.429,0.425 0.524,0.09 1.139,0.123 1.865,0.123 1.987,0 3.46,-0.692 4.42,-2.065 0.96,-1.373 1.452,-3.428 1.452,-6.197 z m 38.727,0.191 c 0,4.554 -1.171,8.139 -3.517,10.75 -2.344,2.613 -6.219,3.93 -10.505,3.93 -4.253,0 -7.569,-1.316 -9.925,-3.93 -2.355,-2.611 -3.539,-6.196 -3.539,-10.75 0,-4.588 1.184,-8.194 3.539,-10.796 2.355,-2.602 5.66,-3.906 9.925,-3.906 4.275,0 8.139,1.316 10.482,3.928 2.344,2.613 3.528,6.208 3.528,10.763 z m -8.863,0.055 c 0,-1.63 -0.135,-2.991 -0.392,-4.074 -0.256,-1.095 -0.613,-1.966 -1.061,-2.613 -0.469,-0.692 -1.027,-1.172 -1.629,-1.44 -0.604,-0.268 -1.296,-0.4 -2.077,-0.4 -0.726,0 -1.396,0.121 -1.976,0.357 -0.592,0.233 -1.15,0.68 -1.642,1.361 -0.469,0.637 -0.837,1.517 -1.115,2.623 -0.28,1.116 -0.425,2.512 -0.425,4.197 0,1.687 0.134,3.048 0.39,4.086 0.258,1.038 0.604,1.865 1.028,2.489 0.435,0.637 0.971,1.106 1.629,1.396 0.648,0.289 1.374,0.446 2.166,0.446 0.648,0 1.317,-0.146 1.998,-0.446 0.671,-0.29 1.217,-0.736 1.619,-1.318 0.48,-0.702 0.85,-1.552 1.094,-2.545 0.245,-0.994 0.368,-2.367 0.368,-4.108 z m 37.644,13.766 h -9.087 v -11.856 h -8.406 v 11.856 h -8.396 V 85.595 h 8.396 v 9.589 h 8.406 v -9.589 h 9.087 z m 19.547,-7.224 v -5.794 c -1.361,0.156 -3.305,0.278 -4.143,0.391 -0.847,0.1 -1.663,0.324 -2.488,0.625 -0.704,0.268 -1.396,0.659 -1.787,1.194 -0.39,0.536 -0.58,1.25 -0.58,2.144 0,1.307 0.324,2.199 0.971,2.68 0.659,0.49 1.754,0.736 3.025,0.736 0.703,0 2.268,-0.179 2.993,-0.524 0.736,-0.347 1.395,-0.837 1.998,-1.451 h 0.011 z m 0,4.287 c -0.558,0.492 -1.05,0.949 -1.485,1.34 -0.435,0.391 -1.864,0.782 -2.611,1.173 -0.715,0.379 -1.43,0.67 -2.11,0.871 -0.682,0.2 -1.642,0.301 -2.869,0.301 -2.301,0 -4.757,-0.826 -6.274,-2.467 -1.518,-1.653 -1.998,-3.718 -1.998,-6.219 0,-2.065 0.112,-3.728 0.882,-4.989 0.771,-1.273 1.876,-2.277 3.327,-3.015 1.462,-0.748 3.772,-1.284 5.805,-1.586 2.031,-0.29 5.058,-0.524 7.39,-0.691 v -0.156 c 0,-1.52 -0.523,-2.579 -1.585,-3.16 -1.049,-0.579 -2.634,-0.871 -4.732,-0.871 -0.96,0 -2.076,0.19 -3.349,0.56 -1.273,0.368 -3.92,0.837 -5.136,1.417 h -0.693 v -6.698 c 0.804,-0.245 3.495,-0.536 5.281,-0.87 1.786,-0.336 3.595,-0.503 5.414,-0.503 4.478,0 7.737,0.792 9.79,2.377 2.056,1.586 3.071,4.01 3.071,7.279 v 18.855 H 229.4 v -2.936 z" id="path4837" inkscape:connector-curvature="0" style="fill:#fefefe"/>
    <path d="m 62.692,69.619 h 31.851 v 3.685 H 62.692 Z m 11.878,-30.621 4.053,-4.053 4.052,4.053 -4.052,4.052 z M 94.554,67.799 H 90.613 L 96.329,54.012 C 95.905,53.61 95.447,53.208 94.933,52.829 l -6.386,14.97 h -8.875 v -23.23 c 8.317,0.501 15.406,3.159 21.166,8.183 L 94.575,67.789 Z M 91.673,51.21 c -2.624,-1.329 -5.37,-2.188 -8.184,-2.724 v 15.563 h 2.803 L 91.673,51.221 Z M 62.771,67.799 h 3.94 L 60.996,54.012 c 0.424,-0.402 0.881,-0.804 1.395,-1.183 l 6.386,14.97 h 8.875 v -23.23 c -8.317,0.501 -15.406,3.159 -21.167,8.183 l 6.263,15.037 z m 2.88,-16.589 c 2.624,-1.329 5.369,-2.188 8.183,-2.724 V 64.049 H 71.032 L 65.652,51.221 V 51.21 Z" id="path4839" inkscape:connector-curvature="0" style="fill:#ffcc00"/>
  </g>
</svg>
