<?xml version="1.0" encoding="UTF-8" standalone="no"?>
<svg xmlns:dc="http://purl.org/dc/elements/1.1/" xmlns:cc="http://creativecommons.org/ns#" xmlns:rdf="http://www.w3.org/1999/02/22-rdf-syntax-ns#" xmlns:svg="http://www.w3.org/2000/svg" xmlns="http://www.w3.org/2000/svg" xmlns:sodipodi="http://sodipodi.sourceforge.net/DTD/sodipodi-0.dtd" xmlns:inkscape="http://www.inkscape.org/namespaces/inkscape" version="1.1" id="Layer_1" x="0px" y="0px" viewBox="0 0 209.172 72.542" enable-background="new 0 0 300 160" xml:space="preserve" sodipodi:docname="visa.svg" inkscape:version="0.92.2 (5c3e80d, 2017-08-06)">
  <sodipodi:namedview pagecolor="#ffffff" bordercolor="#666666" borderopacity="1" objecttolerance="10" gridtolerance="10" guidetolerance="10" inkscape:pageopacity="0" inkscape:pageshadow="2" inkscape:window-width="643" inkscape:window-height="480" id="namedview4513" showgrid="false" inkscape:zoom="1.475" inkscape:cx="105.172" inkscape:cy="36.118" inkscape:window-x="67" inkscape:window-y="27" inkscape:window-maximized="0" inkscape:current-layer="Layer_1" />
  <g id="VISA" transform="translate(-44.828,-43.576)">
    <path d="m 239.972,47.154 h -13.386 c -4.149,0 -7.248,1.21 -9.079,5.646 l -25.723,62.331 h 18.197 c 0,0 2.964,-8.382 3.637,-10.212 1.993,0 19.672,0.026 22.193,0.026 0.521,2.374 2.108,10.186 2.108,10.186 H 254 Z m -21.368,43.84 c 1.435,-3.908 6.902,-19.011 6.902,-19.011 -0.091,0.187 1.42,-3.933 2.313,-6.493 l 1.171,5.866 c 0,0 3.313,16.237 4.013,19.638 z m -25.595,1.883 c -0.131,14.127 -11.967,23.241 -30.178,23.241 -7.77,-0.083 -15.25,-1.729 -19.305,-3.621 l 2.437,-15.231 2.232,1.085 c 5.692,2.538 9.38,3.568 16.314,3.568 4.98,0 10.316,-2.088 10.363,-6.639 0.029,-2.98 -2.234,-5.108 -8.976,-8.436 -6.582,-3.262 -15.292,-8.717 -15.182,-18.484 0.097,-13.222 12.16,-22.445 29.287,-22.445 6.713,0 12.091,1.476 15.521,2.854 l -2.344,14.744 -1.565,-0.787 c -3.188,-1.373 -7.293,-2.698 -12.968,-2.602 -6.78,0 -9.932,3.021 -9.932,5.849 -0.034,3.185 3.672,5.282 9.735,8.431 10.005,4.846 14.626,10.739 14.561,18.473 z M 119.181,47.14 91.895,115.03 73.561,115.057 58.043,54.463 C 69.197,62.102 78.7,78.099 82.047,86.526 l 1.807,7.006 16.971,-46.382 z m 7.004,-0.054 h 17.336 l -10.843,68.018 h -17.325 z" id="path4479" inkscape:connector-curvature="0" style="fill:#1d44d6" />
    <path d="m 44.828,44.668 0.18,-1.092 h 21.748 c 2.933,0.118 5.295,1.108 6.11,4.433 l 9.023,32.647 C 77.242,68.044 61.75,49.017 44.828,44.668 Z" id="path4481" inkscape:connector-curvature="0" style="fill:#f68f1f" />
  </g>
</svg>
