<?xml version="1.0" encoding="UTF-8" standalone="no"?>
<svg xmlns:dc="http://purl.org/dc/elements/1.1/" xmlns:cc="http://creativecommons.org/ns#" xmlns:rdf="http://www.w3.org/1999/02/22-rdf-syntax-ns#" xmlns:svg="http://www.w3.org/2000/svg" xmlns="http://www.w3.org/2000/svg" xmlns:sodipodi="http://sodipodi.sourceforge.net/DTD/sodipodi-0.dtd" xmlns:inkscape="http://www.inkscape.org/namespaces/inkscape" version="1.1" id="Layer_1" x="0px" y="0px" viewBox="0 0 228 88" xml:space="preserve" sodipodi:docname="yandex.svg">
  <sodipodi:namedview pagecolor="#ffffff" bordercolor="#666666" borderopacity="1" objecttolerance="10" gridtolerance="10" guidetolerance="10" id="namedview4385" showgrid="false" />
  <g id="g4382" transform="translate(-37.188397,-28.943)">
    <g id="g4368">
      <path d="M 60.154,60.791 H 52.63 c -7.39,0 -13.661,5.628 -13.661,16.55 0,6.555 3.037,11.388 8.448,13.77 l -10.096,18.271 c -0.331,0.598 0,1.059 0.526,1.059 h 4.685 c 0.396,0 0.66,-0.132 0.792,-0.461 l 9.174,-17.942 h 3.3 v 17.942 c 0,0.196 0.199,0.461 0.461,0.461 h 4.094 c 0.395,0 0.527,-0.198 0.527,-0.527 V 61.455 c 0,-0.465 -0.263,-0.664 -0.726,-0.664 M 55.798,87.8 h -2.772 c -4.355,0 -8.579,-3.176 -8.579,-11.12 0,-8.277 3.961,-11.653 7.985,-11.653 h 3.366 z" id="path4356" style="fill:#ff0000" />
      <path d="m 84.959,77.251 h -4.092 c -0.329,0 -0.528,0.265 -0.528,0.46 v 12.646 h -7.59 V 77.711 c 0,-0.33 -0.131,-0.46 -0.46,-0.46 h -4.093 c -0.329,0 -0.526,0.197 -0.526,0.46 v 32.176 c 0,0.33 0.132,0.528 0.459,0.528 h 4.16 c 0.264,0 0.46,-0.198 0.46,-0.528 V 94.528 h 7.59 v 15.358 c 0,0.33 0.199,0.528 0.528,0.528 h 4.092 c 0.329,0 0.461,-0.264 0.461,-0.528 V 77.711 c 0.001,-0.263 -0.197,-0.46 -0.461,-0.46" id="path4358"/>
      <path d="m 178.379,108.297 -0.527,-2.251 c -0.063,-0.198 -0.131,-0.263 -0.327,-0.263 -0.332,0 -2.114,0.725 -4.688,0.725 -5.015,0 -7.458,-4.829 -7.458,-12.509 0,-6.754 2.048,-13.439 5.479,-13.439 0.924,0 2.046,0.263 3.825,1.92 0.2,0.2 0.33,0.266 0.528,0.266 0.198,0 0.396,-0.135 0.595,-0.464 l 1.782,-2.912 c 0.132,-0.2 0.199,-0.4 0.199,-0.6 0,-0.262 -0.264,-0.462 -0.661,-0.66 -2.707,-1.389 -4.552,-1.653 -6.137,-1.653 -6.204,0 -11.023,7.412 -11.023,18.997 0,9.996 4.62,15.756 11.219,15.756 2.775,0 5.743,-1.322 6.933,-2.185 0.261,-0.199 0.326,-0.463 0.261,-0.728" id="path4360"/>
      <path d="m 149.698,92.209 7.918,-14.497 c 0.134,-0.198 0.066,-0.461 -0.198,-0.461 h -3.894 c -1.12,0 -1.517,0.396 -1.911,1.257 l -5.942,12.379 c -0.329,0.729 -0.658,1.19 -0.988,1.391 V 77.712 c 0,-0.263 -0.133,-0.461 -0.397,-0.461 h -4.289 c -0.198,0 -0.396,0.198 -0.396,0.461 v 32.239 c 0,0.2 0.131,0.463 0.396,0.463 h 4.289 c 0.264,0 0.397,-0.198 0.397,-0.463 V 93.337 c 0.197,0.132 0.33,0.329 0.462,0.596 l 7.522,15.49 c 0.394,0.793 0.988,0.991 1.849,0.991 h 4.225 c 0.261,0 0.327,-0.263 0.195,-0.463 z" id="path4362" />
      <path d="m 111.886,106.245 h -0.793 c -0.989,0 -1.253,-0.397 -1.253,-1.192 V 77.712 c 0,-0.331 -0.132,-0.463 -0.397,-0.463 H 96.244 c -0.33,0 -0.527,0.199 -0.527,0.463 v 2.385 c 0,8.009 -0.463,18.335 -4.686,26.148 h -1.453 c -0.397,0 -0.528,0.198 -0.528,0.529 v 9.664 c 0,0.334 0.264,0.463 0.462,0.463 h 3.167 c 0.725,0 0.988,-0.528 0.988,-0.992 v -5.494 h 14.125 v 6.023 c 0,0.265 0.196,0.463 0.459,0.463 h 3.368 c 0.395,0 0.791,-0.331 0.791,-0.992 v -9.135 c 0.001,-0.331 -0.197,-0.529 -0.524,-0.529 m -7.129,0 h -9.569 c 3.366,-5.759 4.686,-12.248 5.148,-20.189 0.132,-1.723 0.199,-3.51 0.199,-4.637 h 4.223 v 24.826 z" id="path4364" />
      <path d="m 125.347,76.454 c -7.125,0 -10.294,9.004 -10.294,18.802 0,9.996 4.486,15.953 11.087,15.953 3.233,0 6.071,-1.256 7.521,-2.186 0.264,-0.131 0.33,-0.332 0.264,-0.594 l -0.527,-2.251 c -0.067,-0.265 -0.199,-0.396 -0.529,-0.396 -0.264,0 -2.177,0.725 -4.885,0.725 -5.081,0 -7.456,-4.433 -7.456,-10.26 v -1.566 c 0,0 2.574,0.31 4.092,0.31 h 9.636 V 92.21 c 0.001,-10.259 -3.631,-15.756 -8.909,-15.756 m -0.726,14.367 c -1.518,0 -3.894,0.265 -3.894,0.265 0,0 0,-0.993 0.132,-2.054 0.593,-5.625 1.979,-8.473 4.29,-8.473 2.112,0 3.43,2.911 3.76,8.009 0.066,1.06 0.066,2.253 0.066,2.253 z" id="path4366" />
    </g>
    <g id="g4380">
      <path d="m 201.223,70.709 c 0,-4.728 0.396,-7.729 10.187,-15.037 8.107,-6.051 34.09,-26.729 34.09,-26.729 V 63.46 h 19.758 v 49.679 h -57.862 c -3.395,0 -6.173,-2.778 -6.173,-6.172 z" id="path4370" style="fill:#ffcc00" />
      <g id="g4378">
        <g id="g4376">
          <polygon points="209.189,108.195 255.095,93.259 255.095,63.461 245.499,63.461 245.499,83.462 " id="polygon4372" style="fill:#d6ab05" />
          <path d="m 228.906,62.426 c 2.123,-2.529 5.224,-3.423 6.926,-1.994 1.703,1.429 1.362,4.639 -0.761,7.168 -2.122,2.53 -5.224,3.421 -6.927,1.993 -1.7,-1.428 -1.361,-4.637 0.762,-7.167" id="path4374" />
        </g>
      </g>
    </g>
  </g>
</svg>
